<svg width="53" height="55" viewBox="0 0 53 55" fill="none" xmlns="http://www.w3.org/2000/svg">
<path d="M9.48451 2.47372C5.74678 2.67637 2.76507 5.64859 2.55744 9.38494C1.85262 22.0682 1.8955 31.4548 2.63632 44.8227C2.81974 48.1326 5.19181 50.8306 8.44449 51.191C12.4136 51.6308 18.4582 52.0733 26.7351 52.0787C35.5021 52.0843 41.8311 51.5874 45.8381 51.1204C48.8277 50.7719 51.0586 48.4298 51.3242 45.4201C51.6786 41.4048 52.0563 35.1099 52.0538 26.5353C52.0515 18.8491 51.722 12.8623 51.3908 8.78218C51.1096 5.31863 48.3044 2.69574 44.8103 2.50062C39.6997 2.21523 32.5167 1.87813 27.0847 1.87641C21.7224 1.87471 14.6625 2.19297 9.48451 2.47372Z" fill="#3D7D7D" stroke="#F6C762"/>
<mask id="mask0_1_1602" style="mask-type:alpha" maskUnits="userSpaceOnUse" x="0" y="0" width="53" height="54">
<path d="M2.06943 7.94405C2.41494 3.96143 5.6889 0.880195 9.68535 0.785388C22.5176 0.480972 32.0125 0.823943 45.3693 1.99909C49.1605 2.33264 52.1231 5.32709 52.2395 9.13108C52.365 13.2344 52.4182 19.3215 52.1553 27.5284C51.8756 36.2599 51.3821 42.6372 50.9677 46.7777C50.6186 50.2659 47.8839 52.9087 44.3833 53.0956C40.2656 53.3153 33.9852 53.4733 25.5541 53.1954C17.6649 52.9353 11.5439 52.3901 7.39597 51.9101C3.68647 51.4809 0.982869 48.3721 0.897689 44.6388C0.777506 39.3715 0.67127 31.8682 0.85428 26.2121C1.03504 20.6255 1.60756 13.2679 2.06943 7.94405Z" fill="#C4C4C4"/>
</mask>
<g mask="url(#mask0_1_1602)">
<g clip-path="url(#clip0_1_1602)">
<path d="M-24.7185 9.03589C-19.072 5.96573 -17.3046 9.21624 -11.658 6.14608C-6.01146 3.07592 -7.77884 -0.174599 -2.13391 -3.24388C3.51102 -6.31316 5.28003 -3.06353 10.9266 -6.13369C16.5731 -9.20385 14.8058 -12.4544 20.4523 -15.5245C26.0989 -18.5947 27.8662 -15.3442 33.5144 -18.4152C39.1626 -21.4863 37.3936 -24.7359 43.0402 -27.8061" stroke="#DFE1FE" stroke-opacity="0.04" stroke-width="2" stroke-miterlimit="10"/>
<path d="M-10.5723 35.0532C-4.92571 31.9831 -3.15833 35.2336 2.48822 32.1634C8.13478 29.0932 6.3674 25.8427 12.0123 22.7735C17.6573 19.7042 19.4263 22.9538 25.0728 19.8836C30.7194 16.8135 28.952 13.563 34.5985 10.4928C40.2451 7.42265 42.0125 10.6732 47.6607 7.60211C53.3088 4.53107 51.5398 1.28144 57.1864 -1.78873" stroke="#DFE1FE" stroke-opacity="0.04" stroke-width="2" stroke-miterlimit="10"/>
<path d="M-17.6454 22.0446C-11.9988 18.9744 -10.2315 22.2249 -4.5849 19.1547C1.06166 16.0846 -0.70572 12.8341 4.93921 9.76479C10.5841 6.69551 12.3531 9.94514 17.9997 6.87498C23.6463 3.80482 21.8789 0.554304 27.5254 -2.51586C33.172 -5.58602 34.9394 -2.33551 40.5875 -5.40655C46.2357 -8.4776 44.4667 -11.7272 50.1133 -14.7974" stroke="#DFE1FE" stroke-opacity="0.04" stroke-width="2" stroke-miterlimit="10"/>
<path d="M-3.49918 48.0619C2.14738 44.9917 3.91835 48.2488 9.56491 45.1787C15.2115 42.1085 13.4405 38.8514 19.0854 35.7821C24.7304 32.7128 26.5029 35.9691 32.1495 32.8989C37.7961 29.8288 36.0251 26.5716 41.6716 23.5015C47.3182 20.4313 49.0892 23.6884 54.7373 20.6174C60.3855 17.5463 58.6129 14.2901 64.2595 11.2199" stroke="#DFE1FE" stroke-opacity="0.04" stroke-width="2" stroke-miterlimit="10"/>
<path d="M6.22861 65.9529C11.8752 62.8828 13.6425 66.1333 19.2891 63.0631C24.9357 59.993 23.1683 56.7425 28.8132 53.6732C34.4581 50.6039 36.2271 53.8535 41.8737 50.7834C47.5202 47.7132 45.7529 44.4627 51.3994 41.3925C57.046 38.3224 58.8134 41.5729 64.4615 38.5018C70.1097 35.4308 68.3407 32.1812 73.9873 29.111" stroke="#DFE1FE" stroke-opacity="0.04" stroke-width="2" stroke-miterlimit="10"/>
<path d="M-21.1837 15.5369C-15.5372 12.4668 -13.7662 15.7239 -8.11966 12.6537C-2.47311 9.58356 -4.24408 6.32644 1.40085 3.25716C7.04578 0.187881 8.81838 3.44412 14.4649 0.373955C20.1115 -2.69621 18.3405 -5.95333 23.9871 -9.02349C29.6336 -12.0937 31.4046 -8.83653 37.0528 -11.9076C42.701 -14.9786 40.9284 -18.2349 46.5749 -21.305" stroke="#DFE1FE" stroke-opacity="0.04" stroke-width="2" stroke-miterlimit="10"/>
<path d="M-7.03391 41.5609C-1.38735 38.4907 0.380029 41.7412 6.02658 38.671C11.6731 35.6009 9.90576 32.3504 15.5507 29.2811C21.1956 26.2118 22.9646 29.4614 28.6112 26.3913C34.2577 23.3211 32.4904 20.0706 38.1369 17.0004C43.7835 13.9303 45.5508 17.1808 51.199 14.1097C56.8472 11.0387 55.0782 7.78907 60.7248 4.7189" stroke="#DFE1FE" stroke-opacity="0.04" stroke-width="2" stroke-miterlimit="10"/>
<path d="M-14.1071 28.5522C-8.4605 25.482 -6.69312 28.7325 -1.04657 25.6624C4.59999 22.5922 2.83261 19.3417 8.47754 16.2724C14.1225 13.2031 15.8915 16.4528 21.538 13.3826C27.1846 10.3124 25.4172 7.06193 31.0638 3.99177C36.7103 0.921609 38.4777 4.17212 44.1259 1.10108C49.7741 -1.96997 48.0051 -5.2196 53.6516 -8.28976" stroke="#DFE1FE" stroke-opacity="0.04" stroke-width="2" stroke-miterlimit="10"/>
<path d="M0.0391846 54.5695C5.68574 51.4994 7.45312 54.7499 13.0997 51.6797C18.7462 48.6095 16.9789 45.359 22.6238 42.2898C28.2687 39.2205 30.0377 42.4701 35.6843 39.3999C41.3308 36.3298 39.5634 33.0793 45.21 30.0091C50.8566 26.9389 52.6239 30.1895 58.2721 27.1184C63.9203 24.0474 62.1513 20.7977 67.7978 17.7276" stroke="#DFE1FE" stroke-opacity="0.04" stroke-width="2" stroke-miterlimit="10"/>
<path d="M9.76337 72.454C15.4099 69.3838 17.1809 72.6409 22.8274 69.5708C28.474 66.5006 26.703 63.2435 32.348 60.1742C37.9929 57.1049 39.7655 60.3612 45.412 57.291C51.0586 54.2208 49.2876 50.9637 54.9342 47.8936C60.5807 44.8234 62.3517 48.0805 67.9999 45.0095C73.6481 41.9384 71.8755 38.6822 77.522 35.612" stroke="#DFE1FE" stroke-opacity="0.04" stroke-width="2" stroke-miterlimit="10"/>
<path d="M-22.9511 12.2864C-17.3046 9.21628 -15.5372 12.4668 -9.89065 9.39663C-4.2441 6.32646 -6.01148 3.07595 -0.366545 0.00667176C5.27839 -3.06261 7.04739 0.187023 12.6939 -2.88314C18.3405 -5.9533 16.5731 -9.20381 22.2197 -12.274C27.8662 -15.3441 29.6336 -12.0936 35.2818 -15.1647C40.93 -18.2357 39.161 -21.4853 44.8075 -24.5555" stroke="#DFE1FE" stroke-opacity="0.04" stroke-width="2" stroke-miterlimit="10"/>
<path d="M-8.8049 38.3037C-3.15835 35.2335 -1.38737 38.4907 4.25918 35.4205C9.90574 32.3503 8.13477 29.0932 13.7797 26.0239C19.4246 22.9547 21.1972 26.2109 26.8438 23.1407C32.4903 20.0706 30.7194 16.8135 36.3659 13.7433C42.0125 10.6731 43.7834 13.9303 49.4316 10.8592C55.0798 7.78816 53.3072 4.53193 58.9538 1.46176" stroke="#DFE1FE" stroke-opacity="0.04" stroke-width="2" stroke-miterlimit="10"/>
<path d="M-15.878 25.2951C-10.2314 22.2249 -8.46046 25.4821 -2.81391 22.4119C2.83265 19.3417 1.06168 16.0846 6.70661 13.0153C12.3515 9.94606 14.1241 13.2023 19.7707 10.1321C25.4172 7.06197 23.6463 3.80485 29.2928 0.734691C34.9394 -2.33547 36.7104 0.921648 42.3585 -2.1494C48.0067 -5.22044 46.2341 -8.47668 51.8807 -11.5468" stroke="#DFE1FE" stroke-opacity="0.04" stroke-width="2" stroke-miterlimit="10"/>
<path d="M-1.72821 51.319C3.91834 48.2489 5.68572 51.4994 11.3323 48.4292C16.9788 45.3591 15.2115 42.1085 20.8564 39.0393C26.5013 35.97 28.2703 39.2196 33.9169 36.1495C39.5634 33.0793 37.796 29.8288 43.4426 26.7586C49.0892 23.6885 50.8565 26.939 56.5047 23.8679C62.1529 20.7969 60.3839 17.5472 66.0305 14.4771" stroke="#DFE1FE" stroke-opacity="0.04" stroke-width="2" stroke-miterlimit="10"/>
<path d="M7.996 69.2034C13.6426 66.1333 15.4099 69.3838 21.0565 66.3136C26.703 63.2435 24.9357 59.9929 30.5806 56.9237C36.2255 53.8544 37.9945 57.104 43.6411 54.0339C49.2876 50.9637 47.5203 47.7132 53.1668 44.643C58.8134 41.5729 60.5808 44.8234 66.2289 41.7523C71.8771 38.6813 70.1081 35.4316 75.7547 32.3615" stroke="#DFE1FE" stroke-opacity="0.04" stroke-width="2" stroke-miterlimit="10"/>
<path d="M-19.4128 18.7941C-13.7662 15.7239 -11.9988 18.9744 -6.35229 15.9043C-0.705736 12.8341 -2.47311 9.58358 3.17182 6.5143C8.81675 3.44502 10.5858 6.69465 16.2323 3.62449C21.8789 0.554328 20.1115 -2.69618 25.758 -5.76635C31.4046 -8.83651 33.172 -5.586 38.8202 -8.65704C44.4683 -11.7281 42.6993 -14.9777 48.3459 -18.0479" stroke="#DFE1FE" stroke-opacity="0.04" stroke-width="2" stroke-miterlimit="10"/>
<path d="M-5.26654 44.8114C0.380015 41.7412 2.14739 44.9918 7.79395 41.9216C13.4405 38.8514 11.6731 35.6009 17.3181 32.5316C22.963 29.4624 24.732 32.712 30.3785 29.6418C36.0251 26.5717 34.2577 23.3211 39.9043 20.251C45.5508 17.1808 47.3182 20.4313 52.9664 17.3603C58.6146 14.2892 56.8456 11.0396 62.4921 7.96945" stroke="#DFE1FE" stroke-opacity="0.04" stroke-width="2" stroke-miterlimit="10"/>
<path d="M4.46121 62.7024C10.1078 59.6322 11.8751 62.8827 17.5217 59.8126C23.1683 56.7424 21.4009 53.4919 27.0458 50.4226C32.6907 47.3533 34.4597 50.603 40.1063 47.5328C45.7529 44.4627 43.9855 41.2121 49.632 38.142C55.2786 35.0718 57.046 38.3223 62.6941 35.2513C68.3423 32.1802 66.5733 28.9306 72.2199 25.8604" stroke="#DFE1FE" stroke-opacity="0.04" stroke-width="2" stroke-miterlimit="10"/>
<path d="M-12.3397 31.8027C-6.69311 28.7326 -4.92573 31.9831 0.720829 28.9129C6.36738 25.8428 4.60001 22.5922 10.2449 19.523C15.8899 16.4537 17.6589 19.7033 23.3054 16.6332C28.952 13.563 27.1846 10.3125 32.8312 7.24232C38.4777 4.17216 40.2451 7.42267 45.8933 4.35162C51.5415 1.28058 49.7724 -1.96905 55.419 -5.03921" stroke="#DFE1FE" stroke-opacity="0.04" stroke-width="2" stroke-miterlimit="10"/>
<path d="M1.80655 57.8201C7.4531 54.7499 9.22048 58.0004 14.867 54.9303C20.5136 51.8601 18.7462 48.6096 24.3911 45.5403C30.0361 42.471 31.8051 45.7207 37.4516 42.6505C43.0982 39.5803 41.3308 36.3298 46.9774 33.2597C52.6239 30.1895 54.3913 33.44 60.0395 30.369C65.6877 27.2979 63.9187 24.0483 69.5652 20.9781" stroke="#DFE1FE" stroke-opacity="0.04" stroke-width="2" stroke-miterlimit="10"/>
<path d="M11.5343 75.7111C17.1809 72.6409 18.9483 75.8914 24.5948 72.8212C30.2414 69.7511 28.474 66.5006 34.1189 63.4313C39.7639 60.362 41.5329 63.6116 47.1794 60.5415C52.826 57.4713 51.0586 54.2208 56.7051 51.1506C62.3517 48.0805 64.1191 51.331 69.7673 48.2599C75.4154 45.1889 73.6464 41.9393 79.293 38.8691" stroke="#DFE1FE" stroke-opacity="0.04" stroke-width="2" stroke-miterlimit="10"/>
<path d="M-23.8348 10.6611C-18.1883 7.59097 -16.4209 10.8415 -10.7743 7.77132C-5.12776 4.70116 -6.89514 1.45065 -1.25021 -1.61863C4.39472 -4.68791 6.16372 -1.43828 11.8103 -4.50844C17.4568 -7.57861 15.6895 -10.8291 21.336 -13.8993C26.9826 -16.9694 28.7499 -13.7189 34.3981 -16.79C40.0463 -19.861 38.2773 -23.1107 43.9239 -26.1808" stroke="#DFE1FE" stroke-opacity="0.04" stroke-width="2" stroke-miterlimit="10"/>
<path d="M-9.6886 36.6785C-4.04204 33.6083 -2.27107 36.8654 3.37548 33.7953C9.02204 30.7251 7.25107 27.468 12.896 24.3987C18.5409 21.3294 20.3135 24.5857 25.9601 21.5155C31.6066 18.4453 29.8357 15.1882 35.4822 12.1181C41.1288 9.04789 42.8997 12.305 48.5479 9.23396C54.1961 6.16292 52.4235 2.90668 58.0701 -0.163481" stroke="#DFE1FE" stroke-opacity="0.04" stroke-width="2" stroke-miterlimit="10"/>
<path d="M-16.7617 23.6698C-11.1152 20.5996 -9.34778 23.8502 -3.70123 20.78C1.94533 17.7098 0.177947 14.4593 5.82288 11.39C11.4678 8.32075 13.2368 11.5704 18.8834 8.50022C24.5299 5.43006 22.7625 2.17955 28.4091 -0.890614C34.0557 -3.96078 35.823 -0.710264 41.4712 -3.78131C47.1194 -6.85236 45.3504 -10.102 50.9969 -13.1721" stroke="#DFE1FE" stroke-opacity="0.04" stroke-width="2" stroke-miterlimit="10"/>
<path d="M-2.61548 49.6871C3.03108 46.617 4.80205 49.8741 10.4486 46.8039C16.0952 43.7338 14.3242 40.4766 19.9691 37.4074C25.614 34.3381 27.3866 37.5943 33.0332 34.5242C38.6798 31.454 36.9088 28.1969 42.5553 25.1267C48.2019 22.0566 49.9729 25.3137 55.621 22.2426C61.2692 19.1716 59.4966 15.9153 65.1432 12.8452" stroke="#DFE1FE" stroke-opacity="0.04" stroke-width="2" stroke-miterlimit="10"/>
<path d="M7.1123 67.5782C12.7589 64.508 14.5262 67.7585 20.1728 64.6884C25.8193 61.6182 24.052 58.3677 29.6969 55.2984C35.3418 52.2291 37.1108 55.4788 42.7574 52.4086C48.4039 49.3384 46.6366 46.0879 52.2831 43.0178C57.9297 39.9476 59.6971 43.1981 65.3452 40.1271C70.9934 37.056 69.2244 33.8064 74.871 30.7362" stroke="#DFE1FE" stroke-opacity="0.04" stroke-width="2" stroke-miterlimit="10"/>
<path d="M-20.2964 17.1688C-14.6499 14.0987 -12.8825 17.3492 -7.23596 14.279C-1.5894 11.2088 -3.35678 7.95834 2.28815 4.88906C7.93308 1.81978 9.70208 5.06941 15.3486 1.99925C20.9952 -1.07092 19.2278 -4.32143 24.8744 -7.39159C30.5209 -10.4618 32.2883 -7.21124 37.9365 -10.2823C43.5847 -13.3533 41.8157 -16.603 47.4622 -19.6731" stroke="#DFE1FE" stroke-opacity="0.04" stroke-width="2" stroke-miterlimit="10"/>
<path d="M-6.15024 43.1861C-0.503683 40.1159 1.2637 43.3664 6.91025 40.2963C12.5568 37.2261 10.7894 33.9756 16.4344 30.9063C22.0793 27.8371 23.8483 31.0867 29.4948 28.0165C35.1414 24.9464 33.374 21.6958 39.0206 18.6257C44.6671 15.5555 46.4345 18.806 52.0827 15.735C57.7309 12.6639 55.9619 9.41431 61.6084 6.34415" stroke="#DFE1FE" stroke-opacity="0.04" stroke-width="2" stroke-miterlimit="10"/>
<path d="M3.57394 61.0706C9.2205 58.0004 10.9915 61.2575 16.638 58.1874C22.2846 55.1172 20.5136 51.8601 26.1585 48.7908C31.8035 45.7215 33.5761 48.9777 39.2226 45.9076C44.8692 42.8374 43.0982 39.5803 48.7448 36.5101C54.3913 33.44 56.1623 36.6971 61.8105 33.6261C67.4586 30.555 65.6861 27.2988 71.3326 24.2286" stroke="#DFE1FE" stroke-opacity="0.04" stroke-width="2" stroke-miterlimit="10"/>
<path d="M-13.2234 30.1775C-7.5768 27.1073 -5.80942 30.3578 -0.162869 27.2877C5.48369 24.2175 3.71631 20.967 9.36124 17.8977C15.0062 14.8284 16.7752 18.0781 22.4217 15.0079C28.0683 11.9378 26.3009 8.68724 31.9475 5.61708C37.594 2.54691 39.3614 5.79743 45.0096 2.72638C50.6578 -0.344665 48.8887 -3.5943 54.5353 -6.66446" stroke="#DFE1FE" stroke-opacity="0.04" stroke-width="2" stroke-miterlimit="10"/>
<path d="M0.922882 56.1948C6.56944 53.1246 8.33682 56.3751 13.9834 53.305C19.6299 50.2348 17.8625 46.9843 23.5075 43.915C29.1524 40.8457 30.9214 44.0953 36.568 41.0252C42.2145 37.955 40.4471 34.7045 46.0937 31.6343C51.7403 28.5642 53.5076 31.8147 59.1558 28.7437C64.804 25.6726 63.035 22.423 68.6815 19.3528" stroke="#DFE1FE" stroke-opacity="0.04" stroke-width="2" stroke-miterlimit="10"/>
<path d="M10.6506 74.0858C16.2972 71.0157 18.0646 74.2662 23.7111 71.196C29.3577 68.1258 27.5903 64.8753 33.2352 61.806C38.8802 58.7368 40.6492 61.9864 46.2957 58.9162C51.9423 55.8461 50.1749 52.5956 55.8214 49.5254C61.468 46.4552 63.2354 49.7058 68.8836 46.6347C74.5317 43.5637 72.7627 40.314 78.4093 37.2439" stroke="#DFE1FE" stroke-opacity="0.04" stroke-width="2" stroke-miterlimit="10"/>
<path d="M-22.0674 13.9117C-16.4209 10.8415 -14.6499 14.0986 -9.00333 11.0285C-3.35678 7.95832 -5.12775 4.70119 0.517183 1.63192C6.16211 -1.43736 7.93471 1.81887 13.5813 -1.25129C19.2278 -4.32145 17.4568 -7.57857 23.1034 -10.6487C28.75 -13.7189 30.5209 -10.4618 36.1691 -13.5328C41.8173 -16.6039 40.0447 -19.8601 45.6912 -22.9303" stroke="#DFE1FE" stroke-opacity="0.04" stroke-width="2" stroke-miterlimit="10"/>
<path d="M-7.91763 39.9356C-2.27108 36.8654 -0.503699 40.116 5.14286 37.0458C10.7894 33.9756 9.02203 30.7251 14.667 27.6558C20.3119 24.5866 22.0809 27.8362 27.7275 24.766C33.374 21.6959 31.6066 18.4454 37.2532 15.3752C42.8997 12.305 44.6671 15.5555 50.3153 12.4845C55.9635 9.41345 54.1945 6.16382 59.841 3.09366" stroke="#DFE1FE" stroke-opacity="0.04" stroke-width="2" stroke-miterlimit="10"/>
<path d="M-14.9943 26.9203C-9.34777 23.8502 -7.5768 27.1073 -1.93024 24.0371C3.71631 20.967 1.94534 17.7099 7.59027 14.6406C13.2352 11.5713 15.0078 14.8275 20.6544 11.7574C26.3009 8.68722 24.5299 5.4301 30.1765 2.35993C35.823 -0.710227 37.594 2.54689 43.2422 -0.524154C48.8904 -3.5952 47.1178 -6.85144 52.7643 -9.9216" stroke="#DFE1FE" stroke-opacity="0.04" stroke-width="2" stroke-miterlimit="10"/>
<path d="M-0.844513 52.9443C4.80204 49.8741 6.56942 53.1246 12.216 50.0545C17.8625 46.9843 16.0952 43.7338 21.7401 40.6645C27.385 37.5952 29.154 40.8449 34.8006 37.7747C40.4471 34.7045 38.6797 31.454 44.3263 28.3839C49.9729 25.3137 51.7402 28.5642 57.3884 25.4932C63.0366 22.4221 61.2676 19.1725 66.9141 16.1023" stroke="#DFE1FE" stroke-opacity="0.04" stroke-width="2" stroke-miterlimit="10"/>
<path d="M8.87967 70.8287C14.5262 67.7585 16.2972 71.0156 21.9438 67.9455C27.5903 64.8753 25.8193 61.6182 31.4643 58.5489C37.1092 55.4796 38.8818 58.7359 44.5283 55.6657C50.1749 52.5955 48.4039 49.3384 54.0505 46.2683C59.697 43.1981 61.468 46.4552 67.1162 43.3842C72.7644 40.3131 70.9918 37.0569 76.6383 33.9867" stroke="#DFE1FE" stroke-opacity="0.04" stroke-width="2" stroke-miterlimit="10"/>
<path d="M-18.5291 20.4193C-12.8825 17.3491 -11.1151 20.5997 -5.46859 17.5295C0.177961 14.4593 -1.58942 11.2088 4.05551 8.13955C9.70044 5.07027 11.4694 8.3199 17.116 5.24973C22.7626 2.17957 20.9952 -1.07094 26.6417 -4.1411C32.2883 -7.21126 34.0557 -3.96075 39.7038 -7.0318C45.352 -10.1028 43.583 -13.3525 49.2296 -16.4226" stroke="#DFE1FE" stroke-opacity="0.04" stroke-width="2" stroke-miterlimit="10"/>
<path d="M-4.38287 46.4366C1.26368 43.3665 3.03106 46.617 8.67762 43.5468C14.3242 40.4767 12.5568 37.2262 18.2017 34.1569C23.8467 31.0876 25.6157 34.3372 31.2622 31.2671C36.9088 28.1969 35.1414 24.9464 40.7879 21.8762C46.4345 18.8061 48.2019 22.0566 53.8501 18.9855C59.4982 15.9145 57.7292 12.6649 63.3758 9.5947" stroke="#DFE1FE" stroke-opacity="0.04" stroke-width="2" stroke-miterlimit="10"/>
<path d="M5.34491 64.3277C10.9915 61.2575 12.7588 64.508 18.4054 61.4379C24.052 58.3677 22.2846 55.1172 27.9295 52.0479C33.5744 48.9787 35.3434 52.2283 40.99 49.1581C46.6366 46.088 44.8692 42.8374 50.5157 39.7673C56.1623 36.6971 57.9297 39.9476 63.5778 36.8766C69.226 33.8055 67.457 30.5559 73.1036 27.4858" stroke="#DFE1FE" stroke-opacity="0.04" stroke-width="2" stroke-miterlimit="10"/>
<path d="M-11.456 33.428C-5.80944 30.3578 -4.04206 33.6083 1.6045 30.5382C7.25105 27.468 5.48367 24.2175 11.1286 21.1482C16.7735 18.0789 18.5425 21.3286 24.1891 18.2584C29.8356 15.1882 28.0683 11.9377 33.7148 8.86756C39.3614 5.7974 41.1288 9.04791 46.7769 5.97687C52.4251 2.90582 50.6561 -0.343807 56.3027 -3.41397" stroke="#DFE1FE" stroke-opacity="0.04" stroke-width="2" stroke-miterlimit="10"/>
<path d="M2.69025 59.4453C8.3368 56.3752 10.1078 59.6323 15.7543 56.5621C21.4009 53.4919 19.6299 50.2348 25.2748 47.1655C30.9198 44.0963 32.6924 47.3525 38.3389 44.2823C43.9855 41.2122 42.2145 37.9551 47.8611 34.8849C53.5076 31.8147 55.2786 35.0719 60.9268 32.0008C66.5749 28.9298 64.8024 25.6735 70.4489 22.6034" stroke="#DFE1FE" stroke-opacity="0.04" stroke-width="2" stroke-miterlimit="10"/>
<path d="M12.418 77.3363C18.0646 74.2661 19.8319 77.5167 25.4785 74.4465C31.125 71.3763 29.3577 68.1258 35.0026 65.0565C40.6475 61.9873 42.4165 65.2369 48.0631 62.1667C53.7096 59.0966 51.9423 55.8461 57.5888 52.7759C63.2354 49.7057 65.0028 52.9562 70.6509 49.8852C76.2991 46.8141 74.5301 43.5645 80.1767 40.4944" stroke="#DFE1FE" stroke-opacity="0.04" stroke-width="2" stroke-miterlimit="10"/>
</g>
<path d="M26.0001 20V30.5M26.0001 20L22.0001 24M26.0001 20L30.0001 24" stroke="#F5C868" stroke-width="2" stroke-linecap="round"/>
<path d="M31.0001 34H21.0001" stroke="#F5C868" stroke-width="2" stroke-linecap="round"/>
</g>
<defs>
<clipPath id="clip0_1_1602">
<rect x="0.269348" y="-2.74695" width="56.682" height="56.682" rx="8" fill="white"/>
</clipPath>
</defs>
</svg>
