<svg width="243" height="267" viewBox="0 0 243 267" fill="none" xmlns="http://www.w3.org/2000/svg">
<g filter="url(#filter0_d_80_39)">
<path d="M16 76.9585C16 64.8003 22.8901 53.6923 33.7825 48.2904L106.913 12.0225C115.838 7.5961 126.316 7.57925 135.256 11.977L209.125 48.3161C220.068 53.6993 227 64.8344 227 77.0298V210.126C227 233.55 202.66 249.036 181.442 239.112L134.686 217.242C126.062 213.208 116.091 213.224 107.48 217.284L61.6482 238.896C40.4223 248.905 16 233.42 16 209.952V76.9585Z" fill="#453428"/>
<path d="M18 76.9585C18 65.5601 24.4595 55.1464 34.6711 50.0821L107.801 13.8143C116.169 9.66451 125.992 9.64872 134.373 13.7716L208.242 50.1107C218.501 55.1575 225 65.5967 225 77.0298V210.126C225 232.086 202.181 246.604 182.289 237.3L135.533 215.43C126.371 211.145 115.776 211.161 106.627 215.475L60.7952 237.087C40.8959 246.47 18 231.953 18 209.952V76.9585Z" stroke="white" stroke-width="4"/>
</g>
<defs>
<filter id="filter0_d_80_39" x="0" y="0.690674" width="243" height="265.473" filterUnits="userSpaceOnUse" color-interpolation-filters="sRGB">
<feFlood flood-opacity="0" result="BackgroundImageFix"/>
<feColorMatrix in="SourceAlpha" type="matrix" values="0 0 0 0 0 0 0 0 0 0 0 0 0 0 0 0 0 0 127 0" result="hardAlpha"/>
<feOffset dy="8"/>
<feGaussianBlur stdDeviation="8"/>
<feComposite in2="hardAlpha" operator="out"/>
<feColorMatrix type="matrix" values="0 0 0 0 0 0 0 0 0 0 0 0 0 0 0 0 0 0 0.25 0"/>
<feBlend mode="normal" in2="BackgroundImageFix" result="effect1_dropShadow_80_39"/>
<feBlend mode="normal" in="SourceGraphic" in2="effect1_dropShadow_80_39" result="shape"/>
</filter>
</defs>
</svg>
