<svg width="26" height="27" viewBox="0 0 26 27" fill="none" xmlns="http://www.w3.org/2000/svg">
<path d="M10.6331 13.5C10.6331 12.1429 11.6928 11.0424 13.0005 11.0424C14.3081 11.0424 15.3684 12.1429 15.3684 13.5C15.3684 14.8571 14.3081 15.9576 13.0005 15.9576C11.6928 15.9576 10.6331 14.8571 10.6331 13.5ZM9.35302 13.5C9.35302 15.5907 10.986 17.2855 13.0005 17.2855C15.015 17.2855 16.6479 15.5907 16.6479 13.5C16.6479 11.4093 15.015 9.71453 13.0005 9.71453C10.986 9.71453 9.35302 11.4093 9.35302 13.5ZM15.9399 9.56443C15.9399 9.7394 15.9898 9.91046 16.0834 10.056C16.177 10.2015 16.3101 10.3149 16.4658 10.382C16.6215 10.449 16.7929 10.4666 16.9583 10.4325C17.1236 10.3984 17.2756 10.3142 17.3948 10.1906C17.5141 10.0669 17.5953 9.90931 17.6283 9.73772C17.6612 9.56613 17.6444 9.38825 17.58 9.22657C17.5155 9.0649 17.4063 8.92669 17.2662 8.82943C17.126 8.73216 16.9613 8.68021 16.7927 8.68014H16.7923C16.5663 8.68025 16.3496 8.77344 16.1898 8.93924C16.03 9.10505 15.9401 9.32991 15.9399 9.56443ZM10.1307 19.5007C9.4382 19.468 9.06179 19.3482 8.81164 19.2471C8.48 19.1131 8.24337 18.9535 7.99459 18.6957C7.7458 18.4378 7.5918 18.1925 7.46326 17.8483C7.36575 17.5888 7.25039 17.198 7.21891 16.4793C7.18447 15.7022 7.1776 15.4688 7.1776 13.5001C7.1776 11.5314 7.18504 11.2986 7.21891 10.5209C7.25045 9.80211 7.36666 9.4121 7.46326 9.15183C7.59237 8.80765 7.74614 8.56207 7.99459 8.30387C8.24303 8.04567 8.47943 7.88584 8.81164 7.75244C9.06167 7.65124 9.4382 7.53151 10.1307 7.49884C10.8795 7.4631 11.1044 7.45596 13.0005 7.45596C14.8965 7.45596 15.1217 7.46369 15.8711 7.49884C16.5636 7.53157 16.9394 7.65218 17.1902 7.75244C17.5218 7.88584 17.7584 8.04602 18.0072 8.30387C18.256 8.56172 18.4094 8.80765 18.5385 9.15183C18.6361 9.41133 18.7514 9.80211 18.7829 10.5209C18.8173 11.2986 18.8242 11.5314 18.8242 13.5001C18.8242 15.4688 18.8173 15.7015 18.7829 16.4793C18.7514 17.198 18.6354 17.5887 18.5385 17.8483C18.4094 18.1925 18.2557 18.438 18.0072 18.6957C17.7588 18.9533 17.5218 19.1131 17.1902 19.2471C16.9401 19.3483 16.5636 19.468 15.8711 19.5007C15.1223 19.5364 14.8974 19.5436 13.0005 19.5436C11.1036 19.5436 10.8793 19.5364 10.1307 19.5007ZM10.0719 6.17257C9.31574 6.20831 8.79902 6.33276 8.34776 6.51499C7.88042 6.70319 7.4848 6.95567 7.08946 7.36532C6.69412 7.77497 6.45147 8.18621 6.27014 8.67123C6.09454 9.13986 5.97464 9.67584 5.9402 10.4606C5.9052 11.2467 5.89719 11.498 5.89719 13.5C5.89719 15.502 5.9052 15.7533 5.9402 16.5394C5.97464 17.3242 6.09454 17.8601 6.27014 18.3288C6.45147 18.8135 6.69418 19.2252 7.08946 19.6347C7.48474 20.0442 7.88042 20.2963 8.34776 20.485C8.79987 20.6672 9.31574 20.7917 10.0719 20.8274C10.8297 20.8632 11.0714 20.8721 13.0005 20.8721C14.9295 20.8721 15.1716 20.8638 15.929 20.8274C16.6853 20.7917 17.2016 20.6672 17.6532 20.485C18.1202 20.2963 18.5162 20.0443 18.9115 19.6347C19.3068 19.225 19.549 18.8135 19.7308 18.3288C19.9064 17.8601 20.0269 17.3242 20.0607 16.5394C20.0952 15.7527 20.1032 15.502 20.1032 13.5C20.1032 11.498 20.0952 11.2467 20.0607 10.4606C20.0263 9.67578 19.9064 9.13957 19.7308 8.67123C19.549 8.18651 19.3062 7.77562 18.9115 7.36532C18.5168 6.95502 18.1202 6.70319 17.6538 6.51499C17.2016 6.33276 16.6852 6.20772 15.9296 6.17257C15.1722 6.13684 14.9301 6.12793 13.001 6.12793C11.072 6.12793 10.8297 6.13625 10.0719 6.17257Z" fill="url(#paint0_radial_1_1354)"/>
<path d="M10.6331 13.5C10.6331 12.1429 11.6928 11.0424 13.0005 11.0424C14.3081 11.0424 15.3684 12.1429 15.3684 13.5C15.3684 14.8571 14.3081 15.9576 13.0005 15.9576C11.6928 15.9576 10.6331 14.8571 10.6331 13.5ZM9.35302 13.5C9.35302 15.5907 10.986 17.2855 13.0005 17.2855C15.015 17.2855 16.6479 15.5907 16.6479 13.5C16.6479 11.4093 15.015 9.71453 13.0005 9.71453C10.986 9.71453 9.35302 11.4093 9.35302 13.5ZM15.9399 9.56443C15.9399 9.7394 15.9898 9.91046 16.0834 10.056C16.177 10.2015 16.3101 10.3149 16.4658 10.382C16.6215 10.449 16.7929 10.4666 16.9583 10.4325C17.1236 10.3984 17.2756 10.3142 17.3948 10.1906C17.5141 10.0669 17.5953 9.90931 17.6283 9.73772C17.6612 9.56613 17.6444 9.38825 17.58 9.22657C17.5155 9.0649 17.4063 8.92669 17.2662 8.82943C17.126 8.73216 16.9613 8.68021 16.7927 8.68014H16.7923C16.5663 8.68025 16.3496 8.77344 16.1898 8.93924C16.03 9.10505 15.9401 9.32991 15.9399 9.56443ZM10.1307 19.5007C9.4382 19.468 9.06179 19.3482 8.81164 19.2471C8.48 19.1131 8.24337 18.9535 7.99459 18.6957C7.7458 18.4378 7.5918 18.1925 7.46326 17.8483C7.36575 17.5888 7.25039 17.198 7.21891 16.4793C7.18447 15.7022 7.1776 15.4688 7.1776 13.5001C7.1776 11.5314 7.18504 11.2986 7.21891 10.5209C7.25045 9.80211 7.36666 9.4121 7.46326 9.15183C7.59237 8.80765 7.74614 8.56207 7.99459 8.30387C8.24303 8.04567 8.47943 7.88584 8.81164 7.75244C9.06167 7.65124 9.4382 7.53151 10.1307 7.49884C10.8795 7.4631 11.1044 7.45596 13.0005 7.45596C14.8965 7.45596 15.1217 7.46369 15.8711 7.49884C16.5636 7.53157 16.9394 7.65218 17.1902 7.75244C17.5218 7.88584 17.7584 8.04602 18.0072 8.30387C18.256 8.56172 18.4094 8.80765 18.5385 9.15183C18.6361 9.41133 18.7514 9.80211 18.7829 10.5209C18.8173 11.2986 18.8242 11.5314 18.8242 13.5001C18.8242 15.4688 18.8173 15.7015 18.7829 16.4793C18.7514 17.198 18.6354 17.5887 18.5385 17.8483C18.4094 18.1925 18.2557 18.438 18.0072 18.6957C17.7588 18.9533 17.5218 19.1131 17.1902 19.2471C16.9401 19.3483 16.5636 19.468 15.8711 19.5007C15.1223 19.5364 14.8974 19.5436 13.0005 19.5436C11.1036 19.5436 10.8793 19.5364 10.1307 19.5007ZM10.0719 6.17257C9.31574 6.20831 8.79902 6.33276 8.34776 6.51499C7.88042 6.70319 7.4848 6.95567 7.08946 7.36532C6.69412 7.77497 6.45147 8.18621 6.27014 8.67123C6.09454 9.13986 5.97464 9.67584 5.9402 10.4606C5.9052 11.2467 5.89719 11.498 5.89719 13.5C5.89719 15.502 5.9052 15.7533 5.9402 16.5394C5.97464 17.3242 6.09454 17.8601 6.27014 18.3288C6.45147 18.8135 6.69418 19.2252 7.08946 19.6347C7.48474 20.0442 7.88042 20.2963 8.34776 20.485C8.79987 20.6672 9.31574 20.7917 10.0719 20.8274C10.8297 20.8632 11.0714 20.8721 13.0005 20.8721C14.9295 20.8721 15.1716 20.8638 15.929 20.8274C16.6853 20.7917 17.2016 20.6672 17.6532 20.485C18.1202 20.2963 18.5162 20.0443 18.9115 19.6347C19.3068 19.225 19.549 18.8135 19.7308 18.3288C19.9064 17.8601 20.0269 17.3242 20.0607 16.5394C20.0952 15.7527 20.1032 15.502 20.1032 13.5C20.1032 11.498 20.0952 11.2467 20.0607 10.4606C20.0263 9.67578 19.9064 9.13957 19.7308 8.67123C19.549 8.18651 19.3062 7.77562 18.9115 7.36532C18.5168 6.95502 18.1202 6.70319 17.6538 6.51499C17.2016 6.33276 16.6852 6.20772 15.9296 6.17257C15.1722 6.13684 14.9301 6.12793 13.001 6.12793C11.072 6.12793 10.8297 6.13625 10.0719 6.17257Z" fill="url(#paint1_radial_1_1354)"/>
<defs>
<radialGradient id="paint0_radial_1_1354" cx="0" cy="0" r="1" gradientUnits="userSpaceOnUse" gradientTransform="translate(7.78462 20.9417) scale(18.5455 19.2472)">
<stop offset="0.09" stop-color="#FA8F21"/>
<stop offset="0.78" stop-color="#D82D7E"/>
</radialGradient>
<radialGradient id="paint1_radial_1_1354" cx="0" cy="0" r="1" gradientUnits="userSpaceOnUse" gradientTransform="translate(14.5129 21.6023) scale(14.6164 15.1695)">
<stop offset="0.64" stop-color="#8C3AAA" stop-opacity="0"/>
<stop offset="1" stop-color="#8C3AAA"/>
</radialGradient>
</defs>
</svg>
