<svg width="27" height="27" viewBox="0 0 27 27" fill="none" xmlns="http://www.w3.org/2000/svg">
<path d="M6.19254 7.24942C6.19254 6.66611 6.68088 6.19263 7.28287 6.19263H19.8552C20.4574 6.19263 20.9455 6.66611 20.9455 7.24942V19.889C20.9455 20.4725 20.4574 20.9456 19.8552 20.9456H7.28287C6.68094 20.9456 6.19254 20.4725 6.19254 19.8892V7.24925V7.24942Z" fill="#006699"/>
<path d="M10.6757 18.5389V11.8971H8.46805V18.5389H10.6759H10.6757ZM9.57233 10.9904C10.342 10.9904 10.8212 10.4804 10.8212 9.84299C10.8068 9.19109 10.342 8.69531 9.58697 8.69531C8.8314 8.69531 8.33792 9.19109 8.33792 9.84293C8.33792 10.4803 8.81693 10.9903 9.55787 10.9903H9.57216L9.57233 10.9904ZM11.8977 18.5389H14.1051V14.8302C14.1051 14.6319 14.1195 14.4332 14.1779 14.2916C14.3374 13.8948 14.7006 13.4841 15.3106 13.4841C16.1092 13.4841 16.4289 14.0931 16.4289 14.9861V18.5389H18.6363V14.7307C18.6363 12.6907 17.5474 11.7413 16.0949 11.7413C14.9042 11.7413 14.3812 12.4069 14.0906 12.8602H14.1053V11.8973H11.8978C11.9266 12.5204 11.8976 18.5391 11.8976 18.5391L11.8977 18.5389Z" fill="white"/>
</svg>
