<svg width="274" height="14" viewBox="0 0 274 14" fill="none" xmlns="http://www.w3.org/2000/svg">
<path d="M71.479 13.9262C71.479 13.8855 71.413 13.8601 71.3323 13.8696C71.2516 13.8791 71.0849 13.8409 70.9618 13.7846C70.832 13.7252 70.6318 13.6823 70.4849 13.6823C70.2848 13.6823 70.2687 13.6738 70.4079 13.6418C70.5432 13.6106 70.5387 13.5983 70.3886 13.5887C70.2349 13.5788 70.2416 13.5648 70.4201 13.5234C70.593 13.4832 70.602 13.4677 70.4579 13.4585C70.3539 13.4518 70.2688 13.4336 70.2688 13.4181C70.2688 13.4026 70.3361 13.3978 70.4184 13.4076C70.5041 13.4177 70.5295 13.4061 70.4778 13.3804C70.4283 13.3557 70.4655 13.3355 70.5605 13.3355C70.6864 13.3355 70.6893 13.3198 70.5713 13.2777C70.4413 13.2313 70.4563 13.2199 70.6476 13.2199C70.8401 13.2199 70.8495 13.2125 70.6964 13.1812C70.5005 13.1411 70.1202 13.1769 70.1698 13.2308C70.1827 13.2447 70.1134 13.2617 70.016 13.2685C69.8994 13.2767 69.8688 13.2591 69.9264 13.2171C69.9745 13.1819 69.9521 13.16 69.8766 13.1684C69.8011 13.1769 69.6032 13.1742 69.4368 13.1625C69.1969 13.1457 69.2674 13.1369 69.7772 13.1203C70.1781 13.1072 70.4201 13.0839 70.4201 13.0584C70.4201 13.036 70.5524 13.0176 70.714 13.0176C70.8757 13.0176 71.1011 12.9922 71.2149 12.9612C71.419 12.9055 72.1895 12.8296 72.4392 12.8405C72.5098 12.8436 72.9523 12.8276 73.4225 12.8049C73.8927 12.7823 74.703 12.7545 75.2232 12.7433C75.7433 12.7321 76.2068 12.7112 76.2532 12.6969C76.2995 12.6826 76.4866 12.6706 76.6689 12.6702C76.8512 12.6699 77.4088 12.6311 77.908 12.5842C78.4072 12.5372 78.9307 12.4985 79.0714 12.4981C79.2121 12.4978 79.3692 12.4845 79.4207 12.4686C79.4721 12.4527 79.4373 12.4397 79.3434 12.4397C79.1338 12.4397 79.2094 12.3104 79.4207 12.3076C79.5039 12.3065 79.8704 12.2893 80.2352 12.2693C80.5999 12.2494 81.0645 12.241 81.2675 12.2508C81.4705 12.2605 81.8528 12.2557 82.117 12.2402C82.3812 12.2246 82.9772 12.1977 83.4414 12.1803C84.7155 12.1327 85.3958 12.0929 85.3958 12.066C85.3958 12.0382 77.6358 12.0576 75.7145 12.0903C74.7023 12.1075 74.3161 12.1028 73.8993 12.0681C73.6081 12.044 73.3358 12.0223 73.2942 12.02C73.2526 12.0177 73.0196 12.0001 72.7765 11.9809C72.5333 11.9618 72.227 11.954 72.0958 11.9638C71.9645 11.9736 69.9511 11.9862 67.6216 11.9919C65.292 11.9976 63.0797 12.0153 62.7053 12.0311C62.3309 12.0469 61.2089 12.075 60.212 12.0934C59.215 12.1119 58.2691 12.1403 58.1099 12.1566C57.9508 12.1728 57.488 12.18 57.0817 12.1726C56.6753 12.1651 56.3062 12.1704 56.2613 12.1842C56.2164 12.1981 56.1164 12.202 56.0389 12.1928C55.9615 12.1837 55.8981 12.19 55.8981 12.2068C55.8981 12.2236 55.8471 12.2348 55.7847 12.2317C55.533 12.2189 54.2341 12.2715 54.2341 12.2944C54.2341 12.3226 53.0914 12.3695 52.6594 12.359C52.5005 12.3552 52.2425 12.3783 52.0862 12.4103C51.9299 12.4424 51.6855 12.4701 51.5432 12.472C51.4008 12.4739 50.8759 12.4782 50.3767 12.4816C49.8775 12.4851 49.1968 12.5029 48.864 12.5212C48.5312 12.5396 48.0018 12.5619 47.6875 12.5708C47.3732 12.5798 47.1529 12.5985 47.1981 12.6124C47.3389 12.656 47.0027 12.6674 44.3745 12.7082C44.2349 12.7104 44.1328 12.7245 44.1476 12.7395C44.1625 12.7546 44.0385 12.7745 43.8721 12.7839C43.7057 12.7933 43.3977 12.8232 43.1876 12.8505C42.9129 12.8862 42.34 12.9054 41.1455 12.9188C40.2324 12.929 39.3279 12.936 39.1356 12.9343C38.9433 12.9327 38.5769 12.952 38.3214 12.9772C38.0575 13.0033 37.8164 13.0116 37.7634 12.9966C37.6332 12.9596 37.1006 12.9241 37.2173 12.9602C37.3402 12.9982 37.193 12.9962 36.7903 12.9545C35.9774 12.8703 32.1289 12.9343 31.7274 13.0387C31.6031 13.071 31.5895 13.0928 31.6896 13.0992C31.7757 13.1047 31.8461 13.1207 31.8461 13.1347C31.8461 13.1488 31.7509 13.1533 31.6345 13.1448C31.5181 13.1363 31.378 13.1432 31.323 13.1602C31.1764 13.2055 32.0829 13.1989 32.5722 13.1511C32.7968 13.1291 33.287 13.1016 33.6614 13.0899C34.0358 13.0782 34.4612 13.0644 34.6068 13.0592C34.7524 13.0541 34.8715 13.0669 34.8715 13.0877C34.8715 13.1145 35.0596 13.1227 35.5144 13.1159C36.0114 13.1085 36.0965 13.1131 35.8894 13.136C35.7421 13.1523 35.6556 13.1762 35.6972 13.1891C35.787 13.2168 34.9412 13.2447 33.3039 13.2681C32.3845 13.2812 32.0845 13.276 31.9826 13.2452C31.887 13.2164 31.8501 13.2154 31.8484 13.2416C31.845 13.2948 30.9358 13.2862 30.61 13.2299C30.4579 13.2036 30.3334 13.1944 30.3334 13.2094C30.3334 13.226 29.8424 13.2289 29.0854 13.2169C28.399 13.206 27.3269 13.1899 26.7029 13.1811C26.0789 13.1723 25.3448 13.1501 25.0715 13.1316C24.7982 13.1131 24.4052 13.1042 24.1981 13.1117C23.991 13.1193 23.7786 13.1122 23.7262 13.096C23.6675 13.0779 23.7071 13.0755 23.8288 13.0899C23.952 13.1044 23.9901 13.1019 23.9296 13.0832C23.8157 13.048 23.0943 13.0161 22.2404 13.0086C21.7368 13.0041 21.6326 12.9928 21.6189 12.9411C21.6042 12.8856 21.7086 12.8767 22.6022 12.8569C23.152 12.8447 23.7721 12.8375 23.98 12.841L24.3582 12.8472L23.9569 12.8056C23.2608 12.7333 22.5821 12.7028 21.2572 12.6843C20.55 12.6744 19.5289 12.645 18.9881 12.6191C17.7443 12.5594 13.4284 12.5548 13.2402 12.613C13.1754 12.633 13.0423 12.6399 12.9445 12.6284C12.6917 12.5985 9.90797 12.5885 10.0027 12.6177C10.0912 12.6451 10.0687 12.6456 8.08983 12.6571C6.69316 12.6652 6.10362 12.675 4.01235 12.7253C3.05877 12.7483 2.50125 12.7352 1.95624 12.6769C1.728 12.6525 1.77719 12.6386 2.32686 12.5723C2.77021 12.5189 3.31184 12.4874 4.1294 12.4677C5.52461 12.434 6.8558 12.3915 7.81489 12.3501C8.38857 12.3254 8.503 12.3101 8.44288 12.2662C8.39974 12.2347 8.28183 12.2189 8.15738 12.228C8.04078 12.2366 7.94538 12.2292 7.94538 12.2116C7.94538 12.194 8.0645 12.1794 8.2101 12.1792C8.43634 12.1788 8.44183 12.1746 8.24792 12.1507C8.10442 12.133 8.08877 12.1225 8.20536 12.1222C8.30703 12.122 8.35051 12.1023 8.30231 12.0783C8.24149 12.048 8.39242 12.0197 8.79869 11.9852L9.38245 11.9357L7.90444 11.9183C7.09154 11.9087 6.01941 11.9021 5.52193 11.9038C5.02446 11.9054 4.61743 11.9051 4.61743 11.9031C4.61743 11.9011 4.75357 11.8695 4.91997 11.8328C5.08637 11.7962 5.22251 11.775 5.22251 11.7857C5.22251 11.7965 5.3758 11.7861 5.56315 11.7626C5.75051 11.7392 6.40844 11.705 7.02522 11.6867C7.642 11.6685 8.41624 11.6353 8.74574 11.6131C9.07525 11.5909 9.59156 11.5723 9.8931 11.5717C10.7355 11.5701 12.8576 11.4647 12.244 11.4549C12.1677 11.4537 11.9692 11.4467 11.8028 11.4394C11.6364 11.4321 11.4171 11.4226 11.3155 11.4184C10.9694 11.4039 10.9473 11.3758 11.2668 11.3564C11.4422 11.3458 11.7635 11.3056 11.981 11.2671C12.1985 11.2286 12.5283 11.1971 12.714 11.1971C12.8996 11.1971 13.1292 11.1792 13.2241 11.1573C13.3659 11.1247 13.2412 11.1142 12.5241 11.0986C12.0442 11.0882 11.4473 11.0733 11.1977 11.0656C10.6039 11.0473 8.241 11.05 8.07871 11.0691C7.85976 11.095 6.13014 11.1072 6.13014 11.0829C6.13014 11.0701 6.23224 11.0435 6.35704 11.0237C6.48184 11.0039 6.58395 10.9741 6.58395 10.9575C6.58395 10.9409 6.53915 10.9359 6.48441 10.9464C6.42967 10.9568 6.29353 10.9509 6.18187 10.9332C6.06946 10.9154 5.97887 10.9133 5.97887 10.9286C5.97887 10.9438 5.87676 10.9563 5.75196 10.9563C5.38866 10.9563 5.48832 10.9253 5.98755 10.8831C6.54898 10.8356 6.46858 10.8157 5.56349 10.778C4.73782 10.7437 4.58043 10.6899 5.1724 10.6443C5.78503 10.5971 8.66332 10.5359 10.3087 10.535C11.0799 10.5346 11.8915 10.5256 12.1122 10.5151L12.5135 10.4958L12.0825 10.4285C11.8455 10.3914 11.5364 10.3606 11.3957 10.3601C11.0372 10.3586 10.9282 10.3126 11.1205 10.244C11.3236 10.1715 12.6394 10.0412 13.1681 10.0412C13.391 10.0412 13.5199 10.0287 13.4668 10.0123C13.4153 9.99636 13.2484 9.98335 13.0958 9.98335C12.8396 9.98335 12.5546 9.91121 12.6107 9.86054C12.6678 9.80903 10.2677 9.86663 10.0669 9.92159C9.91348 9.96357 6.05071 10.0733 5.67097 10.0464L5.30935 10.0209L5.66112 9.98491C5.85458 9.96513 7.11138 9.91396 8.45401 9.8712C10.9109 9.79296 11.5088 9.73772 9.8989 9.73772C9.40423 9.73772 8.94915 9.72121 8.80121 9.6979C8.59108 9.6648 8.30014 9.66388 7.07459 9.69248C4.82108 9.74505 3.51141 9.78116 3.20428 9.79919C3.00079 9.81114 2.93959 9.80257 2.97737 9.76743C3.03242 9.71622 3.50043 9.65613 4.23413 9.60608C4.86566 9.56299 4.4731 9.525 3.66561 9.55106C3.31553 9.56236 2.72277 9.58076 2.34837 9.59196L1.66766 9.61232L2.23492 9.50847C2.54692 9.45135 2.80219 9.39997 2.80219 9.39429C2.80219 9.38861 2.38007 9.37484 1.86415 9.36369C0.644326 9.33732 -0.00836913 9.272 8.10262e-05 9.17712C0.00451983 9.12708 0.983131 9.05996 1.8937 9.04723C2.26857 9.04199 3.11985 9.01704 3.78544 8.99179C4.45103 8.96653 5.47219 8.94002 6.05469 8.93287C6.63718 8.92572 7.52211 8.90617 8.0212 8.88943C11.1208 8.78545 11.8185 8.75986 11.9521 8.74522C12.0342 8.73623 11.7959 8.71467 11.4226 8.6973C11.0469 8.67983 10.7439 8.64879 10.7439 8.62778C10.7439 8.57916 12.2685 8.47352 13.6523 8.42628C14.3254 8.4033 14.8234 8.36911 14.9865 8.33469C15.1324 8.30388 15.6388 8.26503 16.1398 8.2462C17.2765 8.20348 17.2458 8.16296 16.0107 8.07578C15.7459 8.05708 15.5599 8.02675 15.5974 8.00837C15.6828 7.96653 16.3839 7.9027 16.7582 7.9027C16.9129 7.9027 16.9974 7.8897 16.946 7.8738C16.8946 7.85791 16.346 7.84491 15.7269 7.84491C14.7069 7.84491 14.2973 7.81536 14.7904 7.77735C15.231 7.74339 13.0233 7.76178 11.9329 7.80115C10.5751 7.85018 9.83626 7.82966 9.83626 7.74291C9.83626 7.70291 10.2314 7.6504 11.3211 7.54558C12.3476 7.44683 12.7445 7.39516 12.6069 7.37819C12.3455 7.34595 12.6035 7.31299 13.618 7.24897C15.0501 7.15862 16.1861 7.00715 16.037 6.92647C15.9351 6.87136 16.4933 6.84131 18.7993 6.77772C19.9455 6.74611 21.0934 6.70023 21.3502 6.67576C21.6069 6.65129 22.1505 6.62363 22.5582 6.6143C23.6822 6.58856 25.8329 6.48463 26.1693 6.43978C26.3334 6.41791 26.6738 6.3991 26.9257 6.39798C27.1775 6.39686 27.5198 6.38477 27.6862 6.37111C27.9271 6.35133 27.8654 6.34541 27.3836 6.34202C26.0943 6.33295 25.4101 6.30866 25.2391 6.2659C25.1224 6.23671 24.9401 6.22773 24.7097 6.23983C24.4072 6.25571 24.3955 6.25381 24.6257 6.22627C24.7728 6.20867 25.011 6.19797 25.1551 6.2025C25.2992 6.20702 25.5087 6.19977 25.6206 6.18637C25.741 6.17196 25.9765 6.17758 26.1972 6.20015C26.488 6.22988 26.6335 6.23076 26.8565 6.20416C27.0376 6.18255 27.1763 6.18041 27.2343 6.19832C27.2846 6.21389 27.7132 6.22709 28.1867 6.22765C28.6602 6.22821 29.2178 6.24726 29.4258 6.26997C29.8789 6.31946 30.0309 6.32309 30.0309 6.28442C30.0309 6.26853 29.9247 6.25552 29.795 6.25552C29.6653 6.25552 29.5965 6.244 29.6421 6.22991C29.6876 6.21582 29.5824 6.19718 29.4081 6.18847C29.2339 6.17977 29.1209 6.15553 29.1571 6.13462C29.2238 6.09602 29.9014 6.0734 31.9974 6.03981C33.891 6.00947 34.4177 5.99314 34.4177 5.96477C34.4177 5.94985 34.3156 5.93764 34.1908 5.93764C34.0647 5.93764 33.9639 5.91196 33.9639 5.87985C33.9639 5.83747 34.0647 5.82205 34.3421 5.82205C34.7772 5.82205 34.8514 5.77755 34.4497 5.75748C34.301 5.75005 33.5351 5.75091 32.7479 5.7594C30.4552 5.78412 29.5381 5.77589 29.0584 5.72631C28.8148 5.70113 28.5719 5.68567 28.5186 5.69196C28.4653 5.69826 28.4498 5.6668 28.4841 5.62206C28.5591 5.52443 28.3464 5.5092 26.7932 5.50104C25.8636 5.49615 25.7915 5.49177 26.1145 5.45978C26.646 5.40716 28.5955 5.33165 29.7581 5.31865C30.3523 5.312 30.9135 5.28827 31.1154 5.26126C31.5451 5.20375 31.8041 5.20304 32.0946 5.25854C32.2253 5.28351 32.5895 5.30162 32.9536 5.30126C34.0748 5.30016 38.2579 5.21889 38.8259 5.18717C39.3562 5.15756 39.3723 5.15278 39.2604 5.058C39.1899 4.99828 39.2058 4.94782 39.3008 4.92967C39.4087 4.90906 39.404 4.88749 39.2858 4.86029C38.9244 4.7771 39.3841 4.75988 41.5917 4.7739C43.307 4.78479 43.8421 4.77883 44.1902 4.74492C44.5584 4.70904 46.2187 4.65956 47.3513 4.6507C47.5177 4.6494 47.9942 4.63671 48.4102 4.6225L49.1666 4.59667L48.4859 4.57564C48.1115 4.56408 46.9883 4.56126 45.9899 4.56936C44.9915 4.57747 43.562 4.58237 42.8132 4.58025C42.0644 4.57814 40.6009 4.59759 39.5609 4.62348C37.5031 4.67471 35.381 4.71054 34.4675 4.70948C34.1489 4.70912 33.8455 4.72017 33.7932 4.73405C33.741 4.74793 33.4857 4.76095 33.226 4.76298C32.9663 4.76501 32.7537 4.77743 32.7537 4.79059C32.7537 4.80375 32.6006 4.80629 32.4134 4.79623C32.1469 4.78191 32.1223 4.78453 32.2999 4.80829C32.4955 4.83445 32.4903 4.8387 32.2621 4.83908C32.1165 4.83934 31.9974 4.85402 31.9974 4.87174C31.9974 4.89153 31.8535 4.88595 31.6245 4.85729C31.2104 4.80546 31.0289 4.79732 31.1548 4.83623C31.2003 4.85032 31.1023 4.86861 30.9368 4.87688C30.7646 4.88548 30.6359 4.87761 30.6359 4.85849C30.6359 4.83914 30.3971 4.82507 30.0686 4.82507C29.7081 4.82507 29.5143 4.83773 29.5368 4.85981C29.5612 4.88372 29.3982 4.8903 29.014 4.8809C28.3842 4.8655 27.763 4.79816 27.7595 4.74494C27.7579 4.72218 27.7046 4.72501 27.6105 4.75283C27.4967 4.78647 27.4634 4.77796 27.4616 4.7148C27.4586 4.61057 27.7079 4.52164 28.003 4.52164C28.1297 4.52164 28.1914 4.50864 28.14 4.49274C28.0886 4.47685 28.1696 4.46285 28.3201 4.46164C28.8186 4.4576 29.1352 4.4401 29.4723 4.39791C29.7745 4.36008 30.4847 4.37464 30.4847 4.41866C30.4847 4.42662 30.3935 4.42645 30.282 4.41824C30.1705 4.41007 29.9833 4.42598 29.866 4.4536C29.6822 4.49687 29.6824 4.50039 29.8677 4.47907C30.0329 4.46004 30.0579 4.46657 29.976 4.50733C29.9123 4.53904 29.9476 4.56979 30.0637 4.58388C30.3531 4.61896 30.5968 4.61236 30.3336 4.57657C30.1628 4.55336 30.2505 4.54955 30.6877 4.56117C31.009 4.56972 31.3922 4.56188 31.5452 4.54363C31.7545 4.51865 31.8756 4.51917 32.0432 4.54576C32.2219 4.57408 32.2875 4.57095 32.3821 4.52957C32.4466 4.50135 32.4886 4.46851 32.4754 4.45659C32.4622 4.44467 32.5478 4.43492 32.6657 4.43492C32.7835 4.43492 32.9059 4.42004 32.9376 4.40187C32.9693 4.38369 33.195 4.36475 33.4391 4.35978C33.6832 4.3548 33.9589 4.33087 34.0519 4.30658C34.1448 4.2823 34.2761 4.27198 34.3435 4.28365C34.4109 4.29532 34.4233 4.28212 34.3711 4.25431C34.2542 4.19205 34.5435 4.18623 34.6682 4.24833C34.7475 4.2878 34.7904 4.28728 35.0417 4.24385C35.3098 4.19748 35.3256 4.19781 35.3278 4.24982C35.3297 4.29594 35.3539 4.29784 35.4768 4.26153C35.6954 4.19691 35.6642 4.18283 35.2593 4.16342C35.0025 4.15111 34.8979 4.12726 34.9146 4.0849C34.9412 4.0174 35.4681 3.96695 36.0753 3.97376C36.6412 3.98011 37.1407 3.94293 37.1407 3.89445C37.1407 3.86324 37.2911 3.85408 37.708 3.8599C38.3177 3.8684 39.3434 3.83587 39.7123 3.79633C39.8956 3.7767 39.881 3.77159 39.6367 3.76977C39.4703 3.76855 38.9938 3.76143 38.5778 3.75398C37.2915 3.73094 35.5805 3.73167 34.9633 3.75551C34.5395 3.77188 34.4037 3.76913 34.4795 3.7457C34.5446 3.72559 34.5037 3.71909 34.3725 3.72871C34.248 3.73783 34.0473 3.71137 33.8876 3.66483C33.6927 3.60801 33.6671 3.58208 33.7976 3.57376C33.9202 3.56596 33.8905 3.54873 33.7074 3.52127C33.4588 3.48402 33.4748 3.48174 33.8884 3.49547C34.138 3.50375 34.2572 3.50287 34.1532 3.4935C33.7701 3.459 33.981 3.42349 34.5691 3.42349C34.9511 3.42349 35.175 3.43681 35.1765 3.45961C35.1782 3.48619 35.2132 3.48538 35.3089 3.45653C35.3906 3.43189 35.4743 3.42825 35.5341 3.44673C35.6356 3.47812 35.8282 3.47568 36.301 3.43701C36.4631 3.42375 36.8195 3.41203 37.093 3.41097C37.7199 3.40854 37.9235 3.3368 37.3034 3.3368C37.0582 3.3368 36.8328 3.31801 36.7835 3.29345C36.7247 3.2642 36.7908 3.2501 36.9867 3.2501C37.1463 3.2501 37.3314 3.23385 37.3979 3.21398C37.5714 3.16218 38.1879 3.10081 38.3466 3.11955C38.4206 3.1283 38.524 3.12225 38.5763 3.10608C38.6285 3.08993 38.8591 3.07671 39.0887 3.07671C39.3183 3.07671 39.8759 3.0556 40.3277 3.02979C41.041 2.98904 41.1051 2.97968 40.8137 2.9588C40.6291 2.94558 39.366 2.93652 38.0069 2.93867C36.6477 2.94084 35.4467 2.93209 35.338 2.91926C35.2255 2.90597 35.0958 2.90969 35.0369 2.92792C34.9153 2.96549 30.2129 2.99397 30.096 2.95784C30.0549 2.94514 29.9157 2.94249 29.7866 2.95196C29.6276 2.96361 29.6066 2.97564 29.7217 2.98923C29.8152 3.00026 29.6847 3.00929 29.4319 3.00929C29.179 3.00929 28.9721 2.99686 28.9721 2.98167C28.9721 2.96647 28.8684 2.9705 28.7415 2.9906C28.6147 3.0107 28.4626 3.01791 28.4034 3.00661C28.3443 2.99531 28.4651 2.96147 28.6718 2.9314L29.0477 2.87674L28.6696 2.89063C28.3382 2.90279 28.3288 2.90111 28.5939 2.87705C29.0302 2.83746 29.7472 2.84155 30.1675 2.88605C30.5771 2.92941 31.0899 2.91512 31.0899 2.86034C31.0899 2.83511 31.3886 2.82378 32.0731 2.82304C32.6901 2.82237 33.0564 2.8338 33.0564 2.85372C33.0564 2.87119 33.1415 2.86417 33.2455 2.83812C33.3821 2.80392 33.7916 2.78562 34.7204 2.77222C35.4276 2.76202 36.4359 2.73533 36.961 2.71291C37.4862 2.69049 38.1328 2.67089 38.3981 2.66937C38.6633 2.66783 39.2207 2.64884 39.6367 2.62714C40.3459 2.59014 40.2658 2.58866 38.3509 2.60344C37.2277 2.61211 36.2066 2.61942 36.0818 2.61968C35.957 2.61994 34.3914 2.65064 32.6026 2.68789C30.8138 2.72515 28.8637 2.75961 28.2689 2.76446C27.6741 2.76932 27.2187 2.78304 27.2567 2.79496C27.2948 2.80688 27.0327 2.81669 26.6742 2.81675C26.3157 2.81675 25.4097 2.83571 24.6609 2.85873C23.3769 2.89821 20.3564 2.93893 20.7666 2.91122C20.8711 2.90417 20.9182 2.8865 20.8711 2.87196C20.8241 2.85743 20.9769 2.84491 21.2106 2.84414C21.4443 2.8434 21.8737 2.81808 22.1649 2.78792C22.4561 2.75776 22.8305 2.72096 22.9969 2.70614C23.5439 2.65741 32.4656 2.37545 34.5691 2.34041C35.1931 2.33002 36.997 2.29575 38.5778 2.26427C40.1586 2.23279 42.245 2.19441 43.2143 2.17899C44.1836 2.16356 45.3042 2.13211 45.7045 2.1091C46.2304 2.07887 46.4613 2.0762 46.5367 2.09949C46.6322 2.12903 48.2237 2.12094 50.15 2.08114C50.4412 2.07512 51.3601 2.06207 52.1921 2.05214C53.685 2.03432 55.9595 1.97438 57.2326 1.9193C57.5921 1.90375 57.95 1.89855 58.0278 1.90774C58.1057 1.91694 59.1596 1.8958 60.3699 1.86078C62.1606 1.80896 62.6348 1.80369 62.9165 1.83249C63.1998 1.86145 63.5625 1.85659 64.9127 1.80576C67.1603 1.72114 70.0932 1.61114 71.5547 1.55664C72.2203 1.53181 73.1873 1.49306 73.7036 1.47052C74.2199 1.44798 74.8666 1.4296 75.1407 1.42967C75.4148 1.42967 75.9454 1.41109 76.3197 1.3882C76.9507 1.34963 78.2426 1.3068 81.6899 1.21019C83.4608 1.16056 83.8176 1.1491 85.6229 1.08391C86.4549 1.05387 87.8163 1.00783 88.6483 0.981593C89.4803 0.95536 90.3652 0.927447 90.6148 0.919564C92.3811 0.863801 92.7174 0.864838 93.0687 0.927131C93.2582 0.960743 93.4133 1.00301 93.4133 1.02105C93.4133 1.03909 93.4644 1.05232 93.5268 1.05044C93.5892 1.04857 93.7958 1.04857 93.9859 1.05044C94.275 1.05329 94.3068 1.0627 94.1803 1.10785C93.9951 1.17396 94.1433 1.20961 94.4205 1.16566C94.7324 1.11621 94.6613 1.16069 94.3025 1.23953C94.1143 1.28089 93.7362 1.31797 93.3883 1.3292C92.8804 1.34559 92.8224 1.35463 92.9851 1.39207C93.2292 1.44826 93.0229 1.45174 102.716 1.22768C103.382 1.21229 104.573 1.19347 105.364 1.18585C106.154 1.17823 107.584 1.1583 108.54 1.14157C109.497 1.12484 110.756 1.106 111.339 1.09971C111.921 1.09341 112.667 1.07479 112.996 1.05832C113.325 1.04185 114.63 1.02758 115.896 1.0266C117.163 1.02563 118.289 1.01903 118.399 1.01195C118.671 0.994469 122.216 0.958994 123.06 0.965309C123.433 0.968109 123.842 0.988381 123.969 1.01038C124.254 1.05966 124.98 1.0646 128.357 1.04024C129.909 1.02903 131.334 1.00356 131.802 0.978663C132.413 0.946173 133.426 0.937279 136.113 0.940811C138.046 0.943366 141.26 0.935614 143.257 0.923623C147.303 0.89932 147.087 0.899045 151.274 0.933769C153.985 0.95625 155.549 0.957183 157.93 0.937741C158.346 0.934344 158.567 0.925616 158.422 0.918347C158.276 0.911081 158.157 0.891538 158.157 0.874925C158.157 0.854997 158.582 0.850446 159.405 0.861552C160.091 0.870811 162.151 0.891565 163.981 0.907672C165.811 0.923781 168.16 0.950301 169.2 0.966605C173.378 1.03211 174.971 1.0552 177.142 1.08166C182.569 1.14785 185.429 1.17423 188.411 1.18556C189.784 1.19077 191.486 1.2039 192.193 1.21473C192.9 1.22556 193.955 1.23325 194.538 1.23183C195.12 1.23042 196.277 1.24202 197.109 1.25766C197.941 1.27329 200.636 1.29181 203.097 1.29881C205.558 1.30581 207.873 1.32421 208.24 1.3397C208.608 1.35519 209.443 1.37491 210.097 1.38352C210.75 1.39213 211.499 1.40586 211.761 1.41403C212.655 1.44199 214.052 1.461 216.094 1.47302C217.892 1.4836 219.639 1.50899 222.22 1.56206C222.636 1.57061 223.215 1.58123 223.506 1.58567C223.797 1.5901 224.546 1.60208 225.17 1.61228C225.794 1.62248 226.849 1.63878 227.514 1.64851C228.18 1.65823 228.758 1.67019 228.8 1.67509C228.842 1.67999 229.263 1.69185 229.736 1.70146C230.209 1.71107 230.696 1.72624 230.818 1.73517C230.94 1.74411 231.642 1.75529 232.378 1.76002C234.4 1.77303 234.397 1.77295 234.397 1.81965C234.397 1.8435 234.469 1.863 234.558 1.863C234.646 1.863 234.669 1.84779 234.608 1.82919C234.534 1.80614 234.583 1.80154 234.763 1.81474C234.908 1.82539 235.177 1.8341 235.361 1.8341C235.586 1.8341 235.702 1.85289 235.717 1.8919C235.744 1.96098 235.662 1.9643 235.359 1.90635C235.042 1.84586 234.688 1.8504 234.795 1.91357C234.847 1.94469 234.831 1.95172 234.752 1.93185C234.665 1.90984 234.239 1.90571 233.414 1.91888C231.994 1.94155 230.923 1.93531 228.952 1.8929C228.161 1.87589 227.14 1.85499 226.683 1.84644C226.225 1.8379 225.771 1.82595 225.674 1.81988C225.577 1.81382 225.458 1.82858 225.409 1.85268C225.344 1.88514 225.201 1.89143 224.856 1.87696C224.314 1.85422 223.965 1.84558 222.523 1.81905C221.94 1.80834 221.423 1.79479 221.373 1.78895C221.267 1.77649 219.244 1.77445 216.472 1.78399C214.713 1.79004 213.473 1.7735 212.548 1.73165C212.026 1.70806 208.379 1.69786 208.379 1.71999C208.379 1.73137 208.838 1.75007 209.4 1.76156C209.962 1.77304 210.557 1.78756 210.724 1.79383C211.891 1.83781 215.017 1.88711 217.531 1.90117C218.113 1.90443 218.662 1.9159 218.75 1.92666C218.896 1.94456 223.528 2.01356 223.777 2.00155C223.836 1.99869 224.395 2.00544 225.019 2.01656C225.983 2.03375 228.447 2.06834 229.065 2.07338C229.289 2.0752 229.315 2.1125 229.11 2.13672C228.963 2.1541 227.822 2.15811 226.79 2.14488C226.475 2.14084 226.162 2.12042 226.095 2.0995C226.003 2.0712 225.743 2.06647 225.079 2.08104C224.588 2.09181 224.141 2.10579 224.085 2.11212C224.03 2.11844 223.881 2.10389 223.755 2.07978C223.628 2.05567 223.489 2.04708 223.445 2.06069C223.36 2.0871 220.307 2.07585 219.422 2.04587C219.13 2.036 218.617 2.02525 218.281 2.02197C217.945 2.0187 217.519 2.00063 217.336 1.98184C217.068 1.95451 217.001 1.9554 217.001 1.98625C217.001 2.00896 216.799 2.02795 216.51 2.03242C215.314 2.05085 213.639 2.0491 212.312 2.02803C211.357 2.01288 210.95 2.01477 211.097 2.03369C211.694 2.10996 210.575 2.14758 208.833 2.10984C207.288 2.07638 207.012 2.07461 206.344 2.09397C206 2.10395 205.517 2.10182 205.271 2.08923C204.623 2.05607 201.256 1.99735 199.756 1.99306C199.049 1.99104 198.028 1.98049 197.487 1.96963C196.947 1.95876 195.857 1.9432 195.067 1.93504C194.277 1.92688 192.405 1.90109 190.907 1.87772C189.41 1.85435 187.182 1.82649 185.957 1.81581C183.961 1.79841 183.72 1.80139 183.633 1.84452C183.551 1.88554 183.288 1.89246 181.852 1.89142C180.925 1.89075 179.861 1.90073 179.486 1.91362L178.805 1.93707L179.94 1.96929C180.564 1.98701 181.313 2.00116 181.604 2.00072C181.895 2.00025 183.086 2.02007 184.251 2.04468C185.416 2.06929 187.628 2.10395 189.168 2.12169C190.707 2.13943 192.117 2.16018 192.303 2.16778C192.488 2.17539 194.019 2.19428 195.706 2.20975C198.738 2.23756 200.862 2.26025 202.479 2.28211C202.937 2.28829 204.507 2.30652 205.968 2.32262C207.429 2.33872 208.722 2.35768 208.842 2.36476C208.962 2.37183 209.196 2.38746 209.362 2.39948C209.529 2.4115 209.926 2.42494 210.246 2.42936C210.566 2.43378 210.907 2.458 211.003 2.4832C211.142 2.51959 211.536 2.53056 212.918 2.53649C213.874 2.5406 214.725 2.55196 214.808 2.56173C214.891 2.5715 215.47 2.58713 216.094 2.59645C219.077 2.64104 222.058 2.67725 223.43 2.68555C224.262 2.69059 226.032 2.71741 227.363 2.74517C228.694 2.77292 230.396 2.79995 231.145 2.80522C236.328 2.84174 240.467 2.88772 242.642 2.93294C243.39 2.94851 244.703 2.96961 245.558 2.97983C246.414 2.99006 247.149 3.00954 247.193 3.02312C247.237 3.03671 247.048 3.04888 246.773 3.05017C246.497 3.05148 246.08 3.05518 245.845 3.05844C245.61 3.0617 245.388 3.05522 245.352 3.04404C245.316 3.03286 245.035 3.03698 244.728 3.05319C244.416 3.06965 243.731 3.07424 243.178 3.0636C242.633 3.0531 239.737 3.03943 236.742 3.03321C233.747 3.02698 230.173 3.0135 228.8 3.00324C226.353 2.98494 225.66 2.99613 227.265 3.028C227.711 3.03685 228.108 3.05037 228.148 3.05806C228.256 3.07867 227.703 3.12966 227.244 3.1414C226.709 3.15508 226.541 3.19169 226.998 3.19482C227.199 3.1962 228.248 3.20945 229.33 3.22426C230.411 3.23908 232.539 3.25888 234.057 3.26827C236.553 3.28371 236.818 3.2902 236.818 3.33599C236.818 3.39955 237.427 3.41458 241.097 3.44161C242.577 3.45251 243.823 3.47239 243.866 3.48581C243.91 3.49922 244.244 3.51019 244.608 3.51019C245.851 3.51019 245.503 3.58999 243.976 3.655C243.545 3.67335 242.966 3.68597 242.69 3.68304C240.848 3.66354 241.331 3.72043 243.398 3.76637C244.23 3.78487 245.387 3.8063 245.97 3.814C246.552 3.82169 247.607 3.84095 248.314 3.85679C249.021 3.87264 250.451 3.89418 251.491 3.90466C252.772 3.91756 253.431 3.93593 253.533 3.96158C253.617 3.98256 254.157 4.00784 254.743 4.01826C255.326 4.02861 255.87 4.05296 255.953 4.07236C256.037 4.09177 256.602 4.11642 257.209 4.12714C257.817 4.13786 258.467 4.16574 258.653 4.18908C258.867 4.21583 259.521 4.23622 260.423 4.24424C262.366 4.26152 263.889 4.29408 263.973 4.32017C264.062 4.34759 262.738 4.38676 262.534 4.36273C262.451 4.35288 262.382 4.35715 262.382 4.37221C262.382 4.38727 262.621 4.40814 262.912 4.41857C263.487 4.43917 263.595 4.47512 263.177 4.50614C262.682 4.54275 263.374 4.60073 264.929 4.65304C266.235 4.69697 267.061 4.75127 266.459 4.75368C265.894 4.75595 266.767 4.80689 267.675 4.82465C268.215 4.8352 268.736 4.85637 268.832 4.8717C268.929 4.88703 269.439 4.91282 269.965 4.92901C271.427 4.97399 271.411 5.01013 269.92 5.03252C269.362 5.04089 268.853 5.06568 268.7 5.09188C268.485 5.12864 268.222 5.13303 267.263 5.11592C265.312 5.08112 264.926 5.08789 264.633 5.16203C264.49 5.19832 264.402 5.2371 264.438 5.24822C264.474 5.25933 264.962 5.27753 265.523 5.28866C266.084 5.29978 266.61 5.31909 266.694 5.33157C266.777 5.34404 267.168 5.36345 267.563 5.37468C268.648 5.40553 268.425 5.44635 267.173 5.44635C266.562 5.44635 266.012 5.45611 265.949 5.46803C265.886 5.47995 265.251 5.4897 264.539 5.4897C263.638 5.4897 263.224 5.5007 263.178 5.52582C263.134 5.55058 263.296 5.562 263.693 5.56211C264.012 5.56216 264.512 5.5742 264.803 5.58878C265.094 5.60336 265.908 5.62351 266.613 5.63357C267.317 5.64362 267.97 5.66402 268.064 5.67889C268.157 5.69376 268.274 5.69836 268.322 5.6891C268.371 5.67984 268.569 5.68306 268.762 5.69627C269.034 5.7148 268.873 5.72447 268.055 5.73868C267.09 5.75545 265.99 5.79763 265.408 5.84014C265.038 5.86712 265.613 5.89678 267.337 5.9397C268.189 5.96094 268.887 5.98603 268.887 5.99546C268.887 6.00489 269.329 6.00722 269.87 6.00064C270.66 5.99103 270.854 5.99697 270.854 6.03092C270.854 6.0833 270.375 6.16896 270.085 6.16836C269.907 6.16799 269.91 6.16308 270.097 6.1399C270.29 6.11607 270.284 6.11183 270.055 6.11145C269.906 6.11119 269.744 6.13119 269.695 6.15585C269.618 6.19406 269.345 6.19846 267.847 6.18559C265.969 6.16945 265.508 6.18858 265.854 6.26818C266.433 6.40152 268.795 6.54448 270.419 6.54448C271.4 6.54448 271.912 6.57953 271.912 6.64664C271.912 6.68023 271.67 6.68883 270.74 6.68828C270.095 6.68791 269.295 6.67389 268.963 6.65715C268.63 6.64041 267.062 6.62083 265.478 6.61362C262.678 6.60089 262.598 6.60212 262.576 6.65863C262.554 6.7142 262.738 6.75423 263.063 6.76426C263.146 6.76683 263.799 6.78998 264.513 6.81569C266.851 6.89986 268.927 6.95112 271.052 6.97718C273.021 7.00131 273.692 7.03441 273.489 7.09728C273.442 7.11164 273.339 7.1157 273.26 7.10631C273.18 7.09692 273.134 7.10647 273.157 7.12751C273.18 7.14868 273.081 7.16401 272.935 7.16182C272.79 7.15964 272.705 7.16797 272.745 7.18033C272.785 7.19268 272.586 7.21107 272.304 7.2212C271.693 7.24307 271.549 7.29516 271.861 7.38044C272.028 7.42588 272.046 7.45298 271.927 7.48034C271.732 7.5252 271.859 7.55591 272.24 7.55591C272.393 7.55591 272.517 7.56134 272.517 7.56799C272.517 7.57464 272.563 7.60257 272.618 7.63006C272.71 7.67599 272.608 7.67849 271.37 7.66089C270.628 7.65035 269.766 7.634 269.454 7.62455C269.003 7.61088 268.887 7.61658 268.887 7.65245C268.887 7.67724 268.777 7.70925 268.643 7.72359C268.297 7.76061 268.505 7.92712 268.939 7.96058C269.249 7.98451 269.251 7.9859 268.963 7.98957C268.66 7.99344 268.66 7.99344 268.963 8.01827C269.258 8.0425 268.845 8.05285 267.299 8.06007C266.653 8.06308 266.164 8.10198 266.164 8.15026C266.164 8.17606 266.007 8.19181 265.748 8.19206C265.519 8.19232 265.177 8.20037 264.988 8.21005C264.666 8.22656 264.661 8.23006 264.913 8.26653C265.06 8.28792 265.367 8.30583 265.595 8.30633C265.822 8.30686 266.458 8.35277 267.006 8.40839C267.56 8.4645 268.225 8.50954 268.499 8.50954C269.416 8.50954 270.846 8.54633 270.775 8.5681C270.737 8.57998 270.821 8.58792 270.963 8.58574C271.104 8.58357 271.244 8.60419 271.274 8.63158C271.343 8.69517 270.45 8.80478 269.989 8.78929C269.805 8.78309 269.629 8.79221 269.599 8.80955C269.527 8.85043 267.762 8.86198 267.056 8.82619C266.756 8.811 265.207 8.79503 263.615 8.79073C260.921 8.78344 260.127 8.7982 261.134 8.83681C261.363 8.84558 261.857 8.866 262.231 8.88218C262.605 8.89835 263.201 8.91216 263.555 8.91285C263.908 8.91355 264.198 8.92711 264.198 8.94301C264.198 8.9589 264.304 8.97191 264.434 8.97191C264.565 8.97191 264.811 8.98619 264.982 9.00365C265.289 9.03506 265.288 9.03577 264.934 9.06953C264.313 9.12863 264.506 9.18439 265.549 9.24774C266.084 9.28024 266.553 9.32575 266.592 9.34888C266.631 9.372 266.723 9.39847 266.797 9.40768C267.028 9.43669 266.751 9.52585 266.489 9.50665C266.357 9.49695 266.291 9.49699 266.342 9.50676C266.393 9.51651 266.263 9.55726 266.053 9.59732C265.777 9.65002 265.493 9.67149 265.025 9.67495C264.668 9.67759 264.405 9.68824 264.438 9.69864C264.472 9.70903 263.848 9.71116 263.052 9.70338C261.894 9.69205 261.553 9.69799 261.35 9.73302C261.068 9.78166 259.583 9.80172 258.808 9.76734C258.512 9.75421 258.296 9.75826 258.232 9.77815C258.175 9.79565 257.968 9.80996 257.772 9.80996C257.317 9.80996 256.937 9.83768 256.937 9.87085C256.937 9.88504 257.035 9.89665 257.156 9.89665C257.277 9.89665 257.433 9.91637 257.504 9.94047C257.583 9.96766 258.175 10.0045 259.062 10.0374C260.809 10.1024 262.096 10.2017 261.974 10.2623C261.928 10.2855 261.793 10.2974 261.674 10.2888C261.556 10.2801 261.497 10.2847 261.543 10.2991C261.59 10.3135 261.449 10.3657 261.231 10.4153C260.939 10.4815 260.755 10.5004 260.531 10.4869C260.362 10.4766 260.265 10.4802 260.312 10.4947C260.359 10.5092 260.16 10.5223 259.871 10.5239C259.581 10.5255 258.867 10.5491 258.283 10.5765L257.221 10.6262L257.559 10.6949C257.745 10.7327 257.96 10.7636 258.037 10.7636C258.114 10.7636 258.41 10.7848 258.696 10.8107C259.194 10.8558 259.205 10.8605 258.985 10.9247C258.84 10.967 258.811 10.9984 258.907 11.0097C258.991 11.0196 259.016 11.0412 258.962 11.0577C258.9 11.077 258.818 11.0737 258.733 11.0484C258.647 11.023 258.561 11.0196 258.487 11.0387C258.425 11.0549 258.169 11.087 257.92 11.11L257.466 11.1518L257.945 11.1616C258.463 11.1723 258.74 11.2464 258.365 11.274C258.238 11.2833 258.096 11.2837 258.05 11.2749C258.004 11.2661 257.74 11.2833 257.463 11.313C257.186 11.3427 256.701 11.3763 256.384 11.3876C256.068 11.3989 255.718 11.4257 255.606 11.4471C255.341 11.4978 255.237 11.4967 253.831 11.428C252.57 11.3664 252.214 11.3721 251.697 11.4625C251.405 11.5135 251.287 11.516 250.496 11.4881C249.46 11.4515 247.506 11.4468 247.618 11.4812C247.66 11.4944 248.192 11.5214 248.799 11.5412C250.345 11.5915 250.519 11.6024 250.265 11.6323C249.825 11.6843 251.796 11.807 253.722 11.8475C254.242 11.8584 254.701 11.8776 254.741 11.8901C254.782 11.9025 254.672 11.9474 254.497 11.9898C254.204 12.0609 254.199 12.0707 254.424 12.1183C254.558 12.1465 254.667 12.1768 254.667 12.1855C254.667 12.2212 252.106 12.1698 251.264 12.1172C250.053 12.0416 247.601 11.9864 247.375 12.0296C247.255 12.0525 247.254 12.0722 247.371 12.0991C247.529 12.1356 247.772 12.1511 249.789 12.2544C250.418 12.2866 250.734 12.3174 250.734 12.3463C250.734 12.3829 250.556 12.3868 249.612 12.3704C248.893 12.358 248.455 12.3617 248.393 12.3809C248.34 12.3973 248.38 12.4108 248.482 12.4108C248.584 12.4108 248.632 12.4175 248.589 12.4257C248.487 12.4451 246.345 12.3592 246.132 12.3272C245.964 12.3021 243.755 12.2371 243.284 12.2434C243.139 12.2454 243.02 12.2633 243.02 12.2832C243.02 12.3031 242.984 12.3369 242.941 12.3583C242.867 12.3953 244.714 12.4701 247.898 12.5591C248.376 12.5724 249.014 12.603 249.316 12.6271C249.617 12.6512 250.077 12.6709 250.337 12.671C251.022 12.6713 252.006 12.7285 251.847 12.7589C251.773 12.7729 250.852 12.7881 249.8 12.7927C248.748 12.7972 247.898 12.8031 247.912 12.8058C247.925 12.8085 248.273 12.8359 248.684 12.8668C249.4 12.9205 249.417 12.9244 249.09 12.9578C248.834 12.984 248.56 12.985 247.994 12.9618C247.074 12.9241 246.953 12.9236 246.953 12.9575C246.953 12.9722 247.156 12.9927 247.405 13.0031C248.232 13.0378 248.053 13.0754 247.06 13.0754C246.483 13.0754 245.899 13.0938 245.616 13.1208C245.329 13.1481 245.007 13.1581 244.805 13.1458C244.373 13.1197 237.271 13.1097 237.354 13.1354C237.53 13.1898 235.545 13.1895 233.852 13.1349C230.423 13.0243 227.506 12.9614 225.624 12.9576C224.584 12.9554 223.018 12.9358 222.144 12.914C221.271 12.8922 219.714 12.8609 218.686 12.8445C217.657 12.8281 216.772 12.8097 216.719 12.8036C216.666 12.7975 216.112 12.7842 215.488 12.774C214.864 12.7639 214.116 12.7501 213.824 12.7433C213.218 12.7293 210.458 12.7 208.454 12.6861C207.005 12.6762 204.802 12.6496 203.311 12.6241C202.812 12.6155 200.872 12.603 199 12.5962C197.128 12.5895 194.916 12.5733 194.084 12.5602C193.252 12.5472 190.951 12.5378 188.97 12.5394C185.975 12.5418 185.346 12.5495 185.226 12.5849C185.105 12.621 185.062 12.6214 184.947 12.5872C184.856 12.5603 184.662 12.5525 184.364 12.5639C184.118 12.5733 183.843 12.5668 183.751 12.5494C183.66 12.532 183.361 12.515 183.086 12.5116C182.812 12.5083 182.451 12.4978 182.285 12.4884C181.378 12.4372 180.433 12.4222 180.053 12.4532C179.747 12.4781 178.985 12.4487 179.09 12.4161C179.129 12.4041 178.4 12.3908 177.47 12.3866C174.967 12.3751 174.707 12.3698 174.424 12.3249C174.193 12.2883 174.17 12.29 174.216 12.34C174.251 12.3782 174.194 12.393 174.04 12.386C173.915 12.3804 173.66 12.3755 173.473 12.3752C173.286 12.3749 173.133 12.3646 173.133 12.3524C173.133 12.3402 173.023 12.3222 172.889 12.3124C172.712 12.2994 172.67 12.3069 172.736 12.3397C172.798 12.3708 172.768 12.3778 172.639 12.3621C172.536 12.3496 171.805 12.3353 171.015 12.3303C169.353 12.3198 169.6 12.3199 161.787 12.3252C158.501 12.3274 155.391 12.3198 154.877 12.3083C154.363 12.2969 153.827 12.2959 153.687 12.3061C153.43 12.325 148.488 12.3622 146.97 12.3568C145.783 12.3525 144.436 12.4858 145.185 12.5335C145.297 12.5406 145.219 12.5611 144.996 12.5836C144.788 12.6045 144.58 12.6326 144.534 12.6461C144.367 12.6945 143.083 12.7216 142.718 12.6843C142.488 12.6608 141.879 12.6524 140.921 12.6594C140.124 12.6653 137.507 12.6769 135.104 12.6853C132.702 12.6937 130.571 12.7085 130.369 12.7182C130.167 12.7279 129.308 12.7378 128.46 12.7402C127.613 12.7426 126.783 12.7593 126.617 12.7771C126.319 12.8091 124.916 12.8615 124.682 12.8495C124.392 12.8347 123.855 12.8384 123.365 12.8586C123.073 12.8707 122.699 12.8784 122.533 12.8757C122.366 12.873 122.094 12.8686 121.928 12.8658C121.761 12.863 120.978 12.8759 120.188 12.8946C119.398 12.9133 118.457 12.9283 118.097 12.9279C117.737 12.9276 117.363 12.9396 117.265 12.9547C117.167 12.9697 116.866 12.9911 116.595 13.0021C116.193 13.0185 116.104 13.0133 116.104 12.9733C116.104 12.93 115.979 12.9267 115.007 12.9448C114.404 12.9561 112.821 12.9683 111.49 12.9719C110.159 12.9756 108.703 12.9939 108.255 13.0125C107.807 13.0312 107.407 13.0465 107.366 13.0465C107.326 13.0465 107.378 13.066 107.481 13.0898C107.585 13.1137 107.899 13.1332 108.181 13.1332C108.462 13.1332 108.691 13.1386 108.691 13.1453C108.691 13.1519 108.733 13.1779 108.783 13.2031C108.909 13.2658 108.483 13.2627 108.147 13.1985C107.957 13.1621 107.866 13.1581 107.821 13.1842C107.786 13.204 107.696 13.2129 107.62 13.2039C107.544 13.1949 107.481 13.1981 107.481 13.2109C107.481 13.2238 107.328 13.2359 107.141 13.2379C106.954 13.2398 105.916 13.2561 104.834 13.2741C103.752 13.2921 101.574 13.312 99.9934 13.3184C98.4126 13.3248 96.9491 13.3371 96.7411 13.3458C96.0364 13.3753 92.1616 13.4438 90.0852 13.4634C86.2377 13.4998 83.3208 13.6049 82.7193 13.7289C82.5312 13.7677 82.1997 13.799 81.9616 13.8005C80.0041 13.8126 77.2857 13.8516 76.0927 13.8845C75.5935 13.8983 74.7178 13.9176 74.1466 13.9274C73.5755 13.9371 72.7664 13.9575 72.3486 13.9726C71.9308 13.9877 71.5642 14.0001 71.5339 14.0001C71.5037 14.0001 71.4789 13.9668 71.4789 13.9262L71.479 13.9262ZM71.479 13.6633C71.479 13.6317 71.412 13.6293 71.1821 13.6528C71.0047 13.671 70.9204 13.7007 70.9728 13.7268C71.0404 13.7604 71.1085 13.7628 71.2697 13.7373C71.3848 13.719 71.479 13.6857 71.479 13.6633ZM96.968 13.2335C97.5599 13.1929 97.5449 13.1923 96.2873 13.2064C93.4075 13.2387 92.5056 13.255 92.5056 13.275C92.5056 13.3127 96.3315 13.2771 96.968 13.2335ZM26.7029 12.8845C26.7029 12.8783 26.6008 12.8731 26.476 12.8731C26.3512 12.8731 26.2491 12.8857 26.2491 12.9011C26.2491 12.9165 26.3512 12.9216 26.476 12.9125C26.6008 12.9033 26.7029 12.8908 26.7029 12.8845ZM37.67 12.7865C37.7228 12.7701 37.5989 12.7576 37.3853 12.7576C37.1773 12.7576 36.9651 12.7706 36.9137 12.7865C36.8609 12.8028 36.9848 12.8154 37.1984 12.8154C37.4064 12.8154 37.6186 12.8023 37.67 12.7865ZM30.4847 12.6386C30.4847 12.6088 30.3036 12.606 29.9676 12.6306C29.588 12.6584 29.6899 12.6931 30.1065 12.6779C30.3145 12.6703 30.4847 12.6526 30.4847 12.6386ZM116.079 12.6339C116.595 12.6064 116.666 12.5959 116.412 12.5844C116.008 12.5661 111.195 12.6047 108.616 12.6469C107.915 12.6584 113.328 12.6864 114.44 12.6771C114.981 12.6725 115.718 12.6531 116.079 12.6339ZM121.323 12.545C121.489 12.5374 121.183 12.5323 120.642 12.5336C119.351 12.5367 118.84 12.5633 119.659 12.5847C119.991 12.5934 120.434 12.5911 120.642 12.5796C120.85 12.5681 121.156 12.5525 121.323 12.545V12.545ZM24.7866 12.5534C25.0981 12.5517 25.096 12.5502 24.7463 12.5235C24.3338 12.492 23.9801 12.5077 23.9801 12.5575C23.9801 12.5756 24.0875 12.5825 24.2193 12.5728C24.3509 12.5632 24.6062 12.5545 24.7866 12.5534ZM123.595 12.5209C123.635 12.5132 123.366 12.5047 122.997 12.502C122.627 12.4993 122.278 12.5117 122.22 12.5295C122.147 12.5522 122.325 12.5578 122.819 12.5484C123.205 12.541 123.555 12.5286 123.595 12.5209ZM241.885 12.1796C241.943 12.1617 241.702 12.152 241.251 12.1541C240.605 12.1572 240.575 12.16 240.978 12.1796C241.639 12.2118 241.781 12.2118 241.885 12.1796ZM8.7301 11.7553C8.6209 11.7469 8.49043 11.748 8.44017 11.7576C8.3899 11.7672 8.47925 11.774 8.63871 11.7728C8.81493 11.7714 8.85077 11.7645 8.7301 11.7553V11.7553ZM10.517 11.7172C10.821 11.6986 10.8358 11.6939 10.5926 11.6932C10.4262 11.6928 10.1539 11.7036 9.98754 11.7172C9.60207 11.7489 9.99976 11.7489 10.517 11.7172ZM12.5468 11.7286C12.6784 11.7189 12.786 11.6877 12.786 11.6591C12.786 11.6148 12.6909 11.6094 12.1431 11.6225C11.448 11.6391 10.9945 11.6883 11.5367 11.6883C11.7148 11.6883 11.9026 11.7013 11.9541 11.7172C12.0617 11.7505 12.2093 11.7533 12.5468 11.7286ZM258.298 11.226C258.298 11.2101 258.179 11.1973 258.033 11.1975C257.807 11.1979 257.802 11.202 257.995 11.226C258.281 11.2612 258.298 11.2612 258.298 11.226ZM16.2936 10.0503C16.1844 10.042 16.054 10.043 16.0037 10.0526C15.9534 10.0622 16.0428 10.069 16.2022 10.0678C16.3785 10.0664 16.4143 10.0595 16.2936 10.0503V10.0503ZM15.0551 9.966C15.0551 9.9189 14.6344 9.9136 14.0817 9.95375C13.48 9.99745 13.6228 10.0282 14.3744 10.0168C14.8311 10.0098 15.0551 9.99313 15.0551 9.966ZM17.8649 9.98685C17.7138 9.94016 17.1729 9.92825 17.1729 9.97162C17.1729 9.99595 17.3282 10.0123 17.56 10.0123C17.7729 10.0123 17.9101 10.0008 17.8649 9.98685ZM16.7191 9.95446C16.8878 9.93363 16.8007 9.92633 16.3787 9.92601C16.0667 9.92574 15.8115 9.93857 15.8115 9.95446C15.8115 9.99127 16.4209 9.99127 16.7191 9.95446ZM268.887 6.5734C268.887 6.55751 268.819 6.5445 268.736 6.5445C268.652 6.5445 268.584 6.55751 268.584 6.5734C268.584 6.58929 268.652 6.6023 268.736 6.6023C268.819 6.6023 268.887 6.58929 268.887 6.5734ZM269.984 6.0341C269.88 6.02608 269.709 6.02608 269.605 6.0341C269.501 6.04212 269.587 6.04868 269.795 6.04868C270.003 6.04868 270.088 6.04212 269.984 6.0341ZM267.715 5.68607C267.527 5.67918 267.221 5.67918 267.034 5.68607C266.847 5.69296 267 5.69859 267.374 5.69859C267.749 5.69859 267.902 5.69296 267.715 5.68607ZM260.718 5.45278C260.718 5.44041 260.157 5.41487 259.47 5.39602C258.784 5.37717 258.059 5.35273 257.858 5.34172C257.632 5.32928 257.529 5.33252 257.587 5.35028C257.638 5.366 258.278 5.39541 259.01 5.41563C259.741 5.43585 260.408 5.45652 260.491 5.46156C260.575 5.4666 260.66 5.47174 260.681 5.473C260.701 5.47425 260.718 5.46516 260.718 5.45278ZM40.0904 5.1863C40.3605 5.16412 40.3493 5.16125 39.9858 5.15943C39.7619 5.15831 39.5367 5.1704 39.4853 5.1863C39.3737 5.2208 39.6701 5.2208 40.0904 5.1863ZM259.659 5.01699C259.659 5.00334 258.976 4.97733 258.141 4.9592C256.261 4.91834 255.923 4.91752 256.115 4.95425C256.196 4.96967 257.009 4.99386 257.923 5.00801C258.836 5.02216 259.601 5.03555 259.622 5.03777C259.642 5.04 259.659 5.03064 259.659 5.01699V5.01699ZM31.6036 4.67095C31.6465 4.65771 31.5824 4.64687 31.4613 4.64687C31.3401 4.64687 31.241 4.65771 31.241 4.67095C31.241 4.6842 31.3051 4.69503 31.3834 4.69503C31.4617 4.69503 31.5608 4.6842 31.6036 4.67095ZM51.8422 4.6175C51.733 4.60915 51.6025 4.61018 51.5522 4.61977C51.502 4.62938 51.5913 4.63621 51.7508 4.63495C51.927 4.63356 51.9629 4.62672 51.8422 4.61749V4.6175ZM28.3669 4.57944C28.3669 4.56355 28.2478 4.55074 28.1022 4.55099C27.8759 4.55135 27.8704 4.5555 28.0644 4.57944C28.3498 4.61469 28.3669 4.61469 28.3669 4.57944ZM28.972 4.53439C28.972 4.52738 28.9039 4.52165 28.8207 4.52165C28.7375 4.52165 28.6694 4.53542 28.6694 4.55225C28.6694 4.56908 28.7375 4.57482 28.8207 4.56499C28.9039 4.55517 28.972 4.5414 28.972 4.53439ZM37.5944 4.33318C37.8024 4.32208 38.4491 4.30213 39.0315 4.28887C39.6139 4.27561 40.3286 4.25101 40.6198 4.23421C40.911 4.21741 41.1492 4.20475 41.1492 4.20608C41.1492 4.21715 42.1854 4.15532 42.6998 4.11354C43.4802 4.05016 43.5295 4.00148 42.8132 4.00148C42.4435 4.00148 42.2838 3.98841 42.2838 3.95814C42.2838 3.9137 42.9608 3.89613 44.0846 3.91141C44.5742 3.91806 45.9711 3.86826 46.2909 3.83274C46.5298 3.80622 45.7664 3.77631 44.7706 3.77318C44.1228 3.77113 43.5708 3.79149 42.8889 3.84254C42.3581 3.88228 41.7836 3.91499 41.6122 3.91523C41.3639 3.9156 41.3452 3.92108 41.5202 3.94222C41.641 3.95683 41.7942 3.96236 41.8606 3.95452C41.9269 3.94669 41.9812 3.95258 41.9812 3.9676C41.9812 3.99347 41.6501 4.01174 40.4947 4.04962C40.2179 4.0587 39.9547 4.08442 39.9098 4.10678C39.843 4.14003 39.7848 4.14073 39.5906 4.11059C39.3916 4.07972 39.3675 4.08113 39.4421 4.11926C39.5073 4.15257 39.4437 4.1635 39.2057 4.15997C39.0267 4.15732 38.6543 4.16694 38.3782 4.18136C38.0302 4.19954 37.8099 4.19705 37.6597 4.17324C37.5379 4.15392 37.4431 4.15137 37.4431 4.16741C37.4431 4.19929 36.2905 4.29046 35.8875 4.29046C35.7447 4.29046 35.6279 4.30824 35.6279 4.32997C35.6279 4.35939 35.8307 4.36742 36.4221 4.36143C36.8588 4.357 37.3864 4.3443 37.5944 4.33319V4.33318ZM43.8172 3.28517C43.708 3.27822 43.5468 3.28627 43.4589 3.30307C43.3467 3.32451 43.4057 3.32827 43.6573 3.3157C43.8619 3.30548 43.9305 3.29238 43.8172 3.28517ZM226.531 3.17067C226.531 3.15875 226.324 3.14623 226.072 3.14285C225.809 3.13933 225.651 3.1486 225.703 3.16453C225.808 3.19712 226.531 3.20249 226.531 3.17067ZM44.2503 2.98862L44.6285 2.98639L44.2756 2.95938C43.877 2.92885 43.1914 2.95237 43.1914 2.99656C43.1914 3.01267 43.3435 3.0179 43.5318 3.00827C43.719 2.99868 44.0423 2.98984 44.2503 2.98862ZM225.321 2.99487C225.321 2.98163 225.219 2.97079 225.094 2.97079C224.969 2.97079 224.867 2.98163 224.867 2.99487C224.867 3.00812 224.969 3.01895 225.094 3.01895C225.219 3.01895 225.321 3.00812 225.321 2.99487ZM225.954 2.99921C225.845 2.99086 225.715 2.99189 225.665 3.00149C225.614 3.01109 225.704 3.01792 225.863 3.01667C226.039 3.01529 226.075 3.00843 225.954 2.99921V2.99921ZM46.8503 2.94142C46.7411 2.93307 46.6106 2.9341 46.5603 2.94369C46.5101 2.9533 46.5994 2.96013 46.7589 2.95887C46.9351 2.95749 46.9709 2.95064 46.8503 2.94141V2.94142ZM29.8796 2.90336C29.8796 2.88747 29.8115 2.87446 29.7283 2.87446C29.6451 2.87446 29.5771 2.88747 29.5771 2.90336C29.5771 2.91925 29.6451 2.93226 29.7283 2.93226C29.8115 2.93226 29.8796 2.91925 29.8796 2.90336ZM33.8126 2.82758C33.8126 2.7952 33.5285 2.82359 33.4472 2.8641C33.3675 2.90376 33.3896 2.90555 33.5823 2.87501C33.709 2.85492 33.8126 2.83358 33.8126 2.82758ZM35.3253 2.83112C35.3253 2.80728 35.2986 2.78777 35.2659 2.78777C35.2332 2.78777 35.1673 2.80728 35.1194 2.83112C35.0715 2.85496 35.0982 2.87446 35.1788 2.87446C35.2594 2.87446 35.3253 2.85496 35.3253 2.83112ZM233.367 1.8433C233.258 1.83495 233.127 1.83598 233.077 1.84557C233.027 1.85517 233.116 1.86201 233.275 1.86075C233.452 1.85937 233.487 1.85252 233.367 1.84329V1.8433ZM94.0874 1.25817C94.1353 1.24337 94.1124 1.22394 94.0366 1.21499C93.9608 1.20603 93.8597 1.21814 93.812 1.24189C93.7179 1.28871 93.9452 1.30214 94.0874 1.25817ZM22.286 13.6606C22.199 13.6407 22.1872 13.6241 22.2597 13.6236C22.3323 13.6231 22.2644 13.6086 22.1088 13.5913C21.7097 13.547 22.0633 13.5091 22.8455 13.5122C23.2541 13.5139 23.3523 13.5208 23.1481 13.5335C22.8598 13.5514 22.645 13.6249 22.8833 13.6241C23.3275 13.6226 23.6483 13.5848 23.5791 13.5422C23.5115 13.5006 23.5295 13.5009 23.7197 13.545C23.978 13.6049 25.1291 13.616 25.2286 13.5595C25.2792 13.5308 25.3407 13.531 25.5275 13.5604C25.8219 13.6068 25.9957 13.7196 25.7456 13.702C25.6481 13.6951 25.5905 13.672 25.6174 13.6506C25.6517 13.6234 25.5822 13.6262 25.3865 13.6601C25.1629 13.6987 24.8384 13.7073 23.7754 13.7026C22.9301 13.6989 22.3866 13.6836 22.2861 13.6606L22.286 13.6606ZM20.2095 13.5969C20.008 13.5731 20.1049 13.5089 20.3423 13.5089C20.5149 13.5089 20.6664 13.5905 20.5248 13.6072C20.4621 13.6146 20.3202 13.61 20.2095 13.5969ZM23.4101 13.3644C23.2428 13.3132 23.2602 13.3061 23.5628 13.3022C23.7507 13.2998 24.0065 13.2957 24.1313 13.2931C24.5348 13.2847 24.6108 13.3111 24.3446 13.3673C24.0084 13.4383 23.6478 13.4371 23.4101 13.3644ZM115.045 13.1494C115.045 13.1424 115.113 13.1286 115.196 13.1188C115.279 13.109 115.347 13.1147 115.347 13.1315C115.347 13.1484 115.279 13.1621 115.196 13.1621C115.113 13.1621 115.045 13.1564 115.045 13.1494ZM116.82 13.1296C116.922 13.1099 117.044 13.101 117.091 13.1099C117.138 13.1188 117.054 13.135 116.904 13.1458C116.689 13.1615 116.671 13.1582 116.82 13.1296ZM35.6279 13.0501C35.6279 13.0361 35.7329 13.0081 35.8612 12.9877C36.0426 12.959 36.1349 12.9584 36.2759 12.9854C36.417 13.0123 36.4071 13.0261 36.2317 13.0473C35.9464 13.0818 35.6279 13.0832 35.6279 13.0501V13.0501ZM206.412 12.7865C206.412 12.7706 206.51 12.7576 206.63 12.7576C206.75 12.7576 206.89 12.7706 206.942 12.7865C206.993 12.8023 206.895 12.8154 206.724 12.8154C206.552 12.8154 206.412 12.8023 206.412 12.7865ZM203.841 12.7558C203.841 12.7229 204.247 12.7195 204.351 12.7516C204.391 12.7642 204.293 12.7763 204.133 12.7787C203.972 12.781 203.841 12.7707 203.841 12.7558ZM53.8248 12.7091C53.6887 12.6414 53.8961 12.6314 54.419 12.6807C54.6917 12.7063 54.8468 12.7293 54.7636 12.7317C54.1261 12.75 53.8958 12.7445 53.8248 12.7091ZM184.629 12.642C184.629 12.6261 184.659 12.6131 184.696 12.6131C184.733 12.6131 184.805 12.6261 184.856 12.642C184.908 12.6579 184.878 12.6709 184.789 12.6709C184.701 12.6709 184.629 12.6579 184.629 12.642ZM182.448 12.6169C182.383 12.5968 182.371 12.5725 182.421 12.563C182.556 12.5371 182.704 12.5752 182.631 12.6171C182.579 12.6464 182.544 12.6464 182.448 12.6169V12.6169ZM183.003 12.6228C182.693 12.599 182.789 12.5594 183.117 12.5758C183.283 12.5841 183.419 12.6024 183.419 12.6164C183.419 12.644 183.301 12.6458 183.003 12.6228ZM255.525 12.4782C255.351 12.445 255.415 12.4108 255.651 12.4108C255.776 12.4108 255.878 12.4303 255.878 12.4541C255.878 12.4993 255.699 12.5115 255.525 12.4782ZM67.7923 12.3012C67.7515 12.2886 67.8511 12.2764 68.0135 12.274C68.1759 12.2717 68.2693 12.282 68.221 12.2969C68.1138 12.3301 67.8928 12.3323 67.7923 12.3012ZM69.1558 12.2516C69.2034 12.2279 69.3541 12.2075 69.4908 12.2063C69.6275 12.205 70.0457 12.1982 70.4201 12.191C70.911 12.1816 71.0375 12.1862 70.8739 12.2073C70.6867 12.2314 70.6845 12.2366 70.8613 12.237C70.9791 12.2372 71.0332 12.2455 70.9813 12.2554C70.9295 12.2653 70.4781 12.2782 69.9782 12.284C69.221 12.2928 69.0838 12.2874 69.1558 12.2516ZM7.4224 12.1816C7.31053 12.147 7.5951 12.1128 7.79659 12.1365C7.96576 12.1565 7.8547 12.2085 7.64284 12.2085C7.56947 12.2085 7.47027 12.1964 7.4224 12.1816ZM8.85301 11.43C8.85301 11.415 8.9203 11.3948 9.00255 11.3851C9.0883 11.375 9.11366 11.3866 9.062 11.4123C8.96144 11.4624 8.85301 11.4715 8.85301 11.43ZM9.96233 11.4151C9.96233 11.3919 10.0202 11.3798 10.0909 11.3882C10.1615 11.3965 10.1802 11.4155 10.1324 11.4302C10.01 11.4681 9.96233 11.4638 9.96233 11.4151ZM273.576 7.64262C273.452 7.62721 273.417 7.61461 273.501 7.61461C273.584 7.61461 273.754 7.62721 273.879 7.64262C274.004 7.65803 274.038 7.67063 273.954 7.67063C273.871 7.67063 273.701 7.65803 273.576 7.64262ZM25.0389 5.49802C25.0389 5.48551 25.1751 5.47527 25.3415 5.47527C25.5079 5.47527 25.644 5.48747 25.644 5.50238C25.644 5.51728 25.5079 5.52752 25.3415 5.52513C25.1751 5.52273 25.0389 5.51053 25.0389 5.49802ZM31.3736 5.07363L31.0189 5.01876L31.9242 4.9958C32.422 4.98317 33.1867 4.97211 33.6234 4.9712C34.0601 4.9703 34.4174 4.96071 34.4175 4.9499C34.4177 4.9274 35.3187 4.97221 35.4593 5.00172C35.5104 5.01244 35.3423 5.01359 35.0856 5.00429C34.7983 4.99387 34.4494 5.0045 34.178 5.03189C33.9354 5.05638 33.3796 5.07768 32.9428 5.07921C32.506 5.08075 32.1487 5.09247 32.1487 5.10526C32.1487 5.14668 31.7374 5.1299 31.3736 5.07363V5.07363ZM29.4668 5.08214C29.517 5.07254 29.6475 5.07151 29.7567 5.07986C29.8774 5.08909 29.8415 5.09594 29.6653 5.09732C29.5058 5.09857 29.4165 5.09175 29.4668 5.08214V5.08214ZM26.7149 4.68299C26.7083 4.65253 26.744 4.63546 26.7943 4.64506C26.8446 4.65466 26.85 4.67959 26.8063 4.70045C26.758 4.7235 26.7221 4.71665 26.7149 4.68299H26.7149ZM30.8462 4.4401C30.8884 4.42704 30.7837 4.39357 30.6134 4.36573C30.3088 4.3159 30.3189 4.31373 31.2398 4.23053C32.3491 4.13032 32.4512 4.12806 32.4512 4.20376C32.4512 4.23937 32.3496 4.26173 32.1865 4.262C31.9719 4.26237 31.9623 4.26735 32.1358 4.28832C32.2535 4.30256 32.4747 4.30961 32.6274 4.30399C32.7801 4.29837 32.905 4.30703 32.905 4.32323C32.905 4.33943 32.6838 4.35037 32.4134 4.34754C32.143 4.34471 31.7856 4.34392 31.6192 4.34578C31.3672 4.34858 31.3545 4.35382 31.5436 4.37716C31.7375 4.4011 31.732 4.40523 31.5058 4.40561C31.3602 4.40587 31.241 4.41906 31.241 4.43496C31.241 4.45085 31.1349 4.46385 31.0052 4.46385C30.8755 4.46385 30.8039 4.45317 30.8462 4.44011V4.4401ZM32.7804 4.20691C32.6283 4.18896 32.6343 4.17691 32.8087 4.14924C33.0535 4.11043 33.2486 4.14433 33.0801 4.19639C33.0201 4.21496 32.8879 4.2196 32.7804 4.20691ZM27.5349 2.99005C27.4835 2.97415 27.5435 2.96115 27.6683 2.96115C27.7931 2.96115 27.9373 2.97415 27.9887 2.99005C28.0401 3.00594 27.9801 3.01895 27.8553 3.01895C27.7305 3.01895 27.5863 3.00594 27.5349 2.99005ZM30.6331 2.86067C30.8509 2.81053 30.9385 2.80531 30.9385 2.84247C30.9385 2.85666 30.8268 2.87646 30.6902 2.88648C30.4826 2.9017 30.4732 2.89747 30.6331 2.86067ZM244.424 2.39432C244.601 2.36045 245.57 2.3339 245.765 2.35756C245.877 2.37117 245.901 2.3838 245.818 2.38562C245.004 2.40345 244.355 2.4075 244.424 2.39432ZM243.505 2.35867C243.38 2.34343 243.474 2.33503 243.77 2.33503C244.023 2.33503 244.23 2.34587 244.23 2.35911C244.23 2.38987 243.76 2.38958 243.505 2.35864V2.35867ZM239.616 2.32178C238.969 2.29408 237.396 2.27422 234.459 2.25662C233.453 2.25059 232.485 2.23078 232.307 2.2126C232.113 2.19281 231.436 2.18274 230.619 2.18752C229.868 2.19192 229.254 2.19256 229.254 2.18893C229.254 2.17887 230.134 2.09419 230.239 2.09419C230.289 2.09419 230.289 2.1072 230.237 2.12309C230.183 2.13995 230.337 2.15199 230.607 2.15199C230.861 2.15199 231.069 2.13898 231.069 2.12309C231.069 2.1072 231.141 2.09419 231.23 2.09419C231.318 2.09419 231.339 2.11045 231.276 2.13031C231.192 2.15702 231.219 2.15881 231.381 2.13717C231.501 2.12108 231.735 2.1094 231.901 2.11122C232.068 2.11304 232.565 2.11646 233.007 2.11882C233.449 2.12117 233.778 2.13284 233.74 2.14476C233.701 2.15668 234.089 2.16453 234.601 2.16221C235.113 2.15986 235.651 2.17009 235.797 2.1849C235.973 2.20287 236.061 2.2013 236.061 2.1802C236.061 2.16281 236.144 2.1583 236.244 2.17017C236.345 2.18205 237.008 2.19531 237.719 2.19965C238.43 2.20398 239.011 2.20907 239.011 2.21095C239.011 2.21284 239.351 2.21859 239.767 2.22374C240.183 2.22889 240.541 2.23599 240.562 2.23951C240.597 2.24552 240.753 2.25427 241.015 2.265C241.136 2.26992 240.426 2.35385 240.297 2.34993C240.255 2.34865 239.949 2.33599 239.616 2.32176L239.616 2.32178ZM233.49 2.17729C233.49 2.16339 233.358 2.15201 233.196 2.15201C233.035 2.15201 232.866 2.16339 232.821 2.17729C232.776 2.1912 232.908 2.20258 233.114 2.20258C233.321 2.20258 233.49 2.1912 233.49 2.17729ZM241.581 2.09374C241.529 2.07759 241.423 2.07185 241.345 2.081C241.268 2.09014 241.204 2.08462 241.204 2.06873C241.204 2.01278 241.448 2.01189 241.629 2.06719C241.73 2.09795 241.781 2.12312 241.744 2.12312C241.707 2.12312 241.633 2.1099 241.581 2.09375V2.09374ZM238.343 1.98103C238.183 1.95057 238.021 1.93167 237.983 1.93904C237.944 1.94642 237.581 1.9568 237.176 1.96213C236.474 1.97136 235.604 1.91183 235.825 1.86968C236.001 1.83594 237.046 1.84384 237.274 1.88063C237.508 1.91831 237.934 1.91956 238.124 1.88311C238.285 1.85245 239.056 1.85917 239.163 1.89217C239.308 1.93708 239.092 2.0364 238.85 2.0364C238.73 2.0364 238.502 2.01148 238.343 1.98101V1.98103ZM239.904 2.00305C239.84 1.98314 239.862 1.9775 239.96 1.98907C240.051 1.99974 240.167 1.99525 240.22 1.97909C240.361 1.93552 240.549 1.94352 240.549 1.99307C240.549 2.04397 240.061 2.05153 239.904 2.00305ZM63.0488 1.78778C63.0991 1.77817 63.2295 1.77714 63.3387 1.7855C63.4594 1.79472 63.4236 1.80157 63.2473 1.80296C63.0879 1.80421 62.9985 1.79739 63.0488 1.78778V1.78778ZM93.5645 0.967192C93.5645 0.9513 93.5945 0.938296 93.6312 0.938296C93.6679 0.938296 93.7399 0.9513 93.7914 0.967192C93.8428 0.983088 93.8128 0.996091 93.7247 0.996091C93.6366 0.996091 93.5645 0.983088 93.5645 0.967192ZM97.0918 0.970117C96.8476 0.935844 96.906 0.886593 97.1749 0.900023C97.3464 0.908593 97.4564 0.896804 97.4723 0.868165C97.4862 0.843161 97.5088 0.803198 97.5227 0.779357C97.5366 0.755516 97.6727 0.734387 97.8252 0.732399C97.9778 0.730404 98.1536 0.726103 98.216 0.722821C98.2784 0.719534 98.5337 0.706366 98.7833 0.693548C99.3383 0.665051 99.6398 0.622481 99.529 0.588248C99.4835 0.574155 99.5806 0.562625 99.745 0.562625C99.9094 0.562625 100.078 0.578878 100.121 0.598747C100.174 0.623846 100.235 0.625404 100.322 0.603866C100.544 0.548764 101.008 0.531567 101.252 0.569355C101.448 0.599685 101.466 0.598928 101.359 0.564937C101.261 0.533768 101.293 0.528557 101.494 0.543263C101.639 0.553914 101.85 0.562624 101.962 0.562624C102.075 0.562624 102.207 0.587296 102.258 0.617453C102.316 0.652698 102.446 0.667424 102.621 0.658688C103.007 0.639399 102.967 0.567947 102.578 0.581631C102.27 0.592442 102.27 0.592047 102.565 0.565247C102.731 0.550145 103.098 0.536874 103.38 0.535757C103.661 0.534632 104.308 0.520972 104.817 0.505381C106.135 0.464981 109.45 0.394182 110.961 0.374164C111.668 0.364795 112.553 0.351973 112.927 0.34567C113.716 0.332395 115.273 0.311263 117.314 0.286139C118.104 0.276409 119.193 0.261286 119.734 0.252534C121.034 0.2315 123.08 0.229931 123.365 0.24976C123.49 0.25845 123.881 0.275543 124.235 0.28775C124.588 0.299954 124.877 0.319509 124.877 0.331204C124.877 0.342897 124.709 0.384616 124.503 0.423907C124.199 0.48207 123.988 0.494822 123.368 0.492506C122.916 0.490794 122.628 0.501525 122.658 0.518925C122.686 0.535017 123.233 0.549255 123.874 0.550562C124.88 0.552609 125.55 0.589999 125.321 0.631309C125.219 0.649793 123.213 0.668057 123.214 0.650503C123.214 0.641908 122.755 0.638944 122.193 0.643916C121.631 0.648888 120.781 0.641147 120.304 0.62668C119.826 0.612227 119.403 0.60657 119.364 0.614113C119.324 0.62165 119 0.630562 118.643 0.633916C118.287 0.637271 117.807 0.65006 117.577 0.662343C117.328 0.675626 117.081 0.672334 116.967 0.654219C116.861 0.637468 116.116 0.620756 115.312 0.617081C114.316 0.612537 113.88 0.600474 113.947 0.579291C114 0.562185 113.928 0.566091 113.787 0.587976C113.611 0.615347 113.338 0.6219 112.915 0.608968C112.511 0.596623 112.333 0.600324 112.395 0.619749C112.503 0.652857 112.483 0.65349 111.112 0.660527C110.571 0.663301 109.975 0.675798 109.788 0.688296C109.601 0.700794 109.448 0.70039 109.448 0.6874C109.448 0.674409 109.278 0.663779 109.07 0.663779C108.862 0.663779 108.692 0.673532 108.692 0.685453C108.692 0.697373 108.585 0.707126 108.456 0.707126C108.326 0.707126 108.255 0.696144 108.299 0.682713C108.404 0.650262 106.85 0.697921 106.737 0.730613C106.531 0.79046 103.7 0.851108 103.7 0.795684C103.7 0.77877 103.627 0.764922 103.539 0.764922C103.451 0.764922 103.418 0.77703 103.466 0.791825C103.603 0.834122 103.255 0.860163 103.03 0.824471C102.879 0.800528 102.808 0.801992 102.751 0.830214C102.702 0.854581 102.453 0.865712 102.053 0.861434C101.711 0.85778 101.431 0.866934 101.431 0.881778C101.431 0.929567 100.653 0.898184 100.502 0.844301C100.422 0.815648 100.291 0.799967 100.21 0.809457C100.13 0.818947 100.099 0.837456 100.141 0.850586C100.184 0.863715 100.119 0.881757 99.9974 0.890674C99.8758 0.899594 99.7353 0.89425 99.6853 0.878796C99.6299 0.861666 99.4361 0.867552 99.1889 0.893872C98.7236 0.943404 97.2763 0.996031 97.0918 0.97013L97.0918 0.970117ZM94.9259 0.838861C94.9259 0.788101 95.0167 0.780629 95.1463 0.820709C95.1942 0.835505 95.1642 0.85578 95.0796 0.865761C94.9951 0.875744 94.9259 0.863667 94.9259 0.838861ZM95.4959 0.788942C95.5839 0.772148 95.7451 0.764094 95.8542 0.771043C95.9675 0.778258 95.8989 0.791358 95.6944 0.801576C95.4428 0.814146 95.3837 0.810383 95.4959 0.788942ZM147.606 0.715618C147.419 0.70873 147.265 0.693168 147.265 0.681038C147.265 0.645673 147.923 0.664897 147.988 0.702163C148.02 0.72078 148.024 0.734239 147.997 0.732074C147.969 0.729902 147.793 0.722506 147.606 0.715618H147.606ZM144.467 0.649316C144.883 0.615181 145.122 0.615181 144.845 0.649316C144.72 0.664726 144.516 0.676619 144.391 0.675742C144.242 0.674695 144.267 0.665694 144.467 0.649316ZM145.383 0.652006C145.337 0.637594 145.435 0.63261 145.601 0.64093C145.954 0.658576 145.999 0.678212 145.686 0.678212C145.566 0.678212 145.43 0.666419 145.383 0.652006ZM125.909 0.58661C125.671 0.540891 125.779 0.537721 127.649 0.535569C128.745 0.534292 129.794 0.52767 129.98 0.520823C130.165 0.513976 130.352 0.519289 130.395 0.532623C130.438 0.545959 130.682 0.554116 130.937 0.550747C131.625 0.541646 131.628 0.583718 130.94 0.596254C130.615 0.602181 130.381 0.597023 130.42 0.584825C130.545 0.54644 130.312 0.560682 130.075 0.605966C129.817 0.655128 129.178 0.663979 129.037 0.620338C128.975 0.601097 128.844 0.601544 128.647 0.621667C128.312 0.655908 127.997 0.632639 128.151 0.585047C128.218 0.564235 128.181 0.562256 128.04 0.57916C127.923 0.593174 127.453 0.61155 126.995 0.619998C126.34 0.632082 126.109 0.624976 125.909 0.586606V0.58661ZM138.038 0.620411C138.038 0.604519 138.068 0.591516 138.105 0.591516C138.141 0.591516 138.213 0.604519 138.265 0.620411C138.316 0.636306 138.286 0.64931 138.198 0.64931C138.11 0.64931 138.038 0.636306 138.038 0.620411ZM131.987 0.562616C131.851 0.545785 131.832 0.534425 131.94 0.53416C132.039 0.533898 132.163 0.546721 132.214 0.562616C132.33 0.598495 132.278 0.598495 131.987 0.562616ZM191.071 0.558675C191.149 0.534482 190.573 0.506023 190.456 0.528323C190.294 0.559392 189.621 0.565261 189.621 0.535609C189.621 0.517268 189.191 0.512849 188.449 0.523575C187.539 0.536728 187.158 0.52995 186.747 0.493348C186.456 0.467403 186.332 0.452137 186.473 0.459424C186.613 0.466711 186.749 0.461366 186.775 0.447565C186.801 0.433758 186.925 0.418235 187.05 0.413067C187.174 0.407906 187.327 0.390673 187.388 0.374778C187.449 0.358883 187.5 0.374359 187.501 0.409187C187.503 0.469032 187.526 0.470224 187.919 0.430979C188.293 0.393738 188.357 0.394658 188.545 0.439916C188.744 0.487902 188.75 0.487897 188.663 0.439916C188.593 0.400889 188.655 0.389346 188.938 0.389346C189.139 0.389346 189.373 0.412104 189.458 0.439916C189.543 0.467982 189.614 0.474412 189.617 0.454367C189.621 0.416525 190.075 0.402225 190.075 0.439916C190.075 0.451837 190.59 0.460838 191.219 0.459921C191.848 0.458999 192.396 0.468753 192.438 0.481594C192.479 0.494432 192.659 0.504935 192.837 0.504935C193.096 0.504935 193.123 0.512161 192.972 0.541057C192.783 0.577225 190.956 0.594266 191.071 0.558793V0.558675ZM193.554 0.557806C193.554 0.54456 193.605 0.532847 193.668 0.531773C193.73 0.5307 193.999 0.524379 194.265 0.517729C194.864 0.50277 195.077 0.552345 194.501 0.5726C193.932 0.592625 193.554 0.586728 193.554 0.557806ZM182.663 0.461477C182.663 0.445585 182.408 0.432581 182.096 0.432581C181.784 0.432581 181.478 0.445585 181.417 0.461477C181.343 0.480743 181.305 0.480743 181.303 0.461477C181.3 0.425273 180.394 0.416709 180.394 0.452884C180.394 0.467435 180.332 0.472035 180.256 0.463107C180.112 0.446098 178.782 0.418788 177.368 0.403834C176.911 0.398993 176.536 0.392112 176.536 0.388541C176.536 0.369173 174.546 0.368873 174.419 0.388226C174.191 0.422769 172.679 0.446868 172.679 0.415944C172.679 0.401253 172.577 0.389236 172.452 0.389236C172.327 0.389236 172.225 0.401783 172.225 0.417123C172.225 0.434534 171.16 0.43987 169.389 0.431334C167.829 0.423814 166.388 0.417797 166.188 0.417963C165.987 0.418225 165.595 0.406276 165.318 0.391629C165.014 0.375614 164.813 0.375514 164.813 0.391367C164.813 0.417628 164.284 0.413374 164.14 0.385958C164.099 0.37805 163.411 0.376202 162.611 0.381854C161.646 0.388666 161.084 0.380704 160.942 0.35824C160.776 0.331843 160.728 0.33312 160.726 0.36401C160.725 0.389068 160.683 0.392557 160.613 0.373482C160.546 0.355364 159.685 0.341858 158.459 0.339699C157.336 0.337731 153.933 0.328657 150.896 0.319568C147.859 0.310483 143.962 0.301313 142.236 0.299197C140.509 0.297103 139.097 0.287212 139.097 0.277268C139.096 0.267318 138.722 0.259179 138.265 0.259179C137.807 0.259179 137.433 0.268933 137.433 0.280853C137.433 0.292774 137.361 0.302527 137.273 0.302527C137.185 0.302527 137.155 0.289523 137.206 0.273628C137.257 0.257735 137.193 0.244732 137.064 0.244732C136.934 0.244745 136.828 0.23174 136.828 0.215848C136.828 0.199954 136.756 0.186949 136.668 0.186949C136.579 0.186949 136.549 0.199954 136.601 0.215848C136.656 0.232916 136.49 0.244565 136.194 0.244302C135.815 0.243936 135.748 0.237049 135.92 0.215848C136.088 0.195159 136.095 0.187719 135.947 0.187391C135.793 0.187025 135.799 0.176984 135.974 0.143602C136.099 0.119762 136.342 0.100255 136.514 0.100255C136.687 0.100255 136.828 0.086374 136.828 0.0694084C136.828 0.0511111 136.959 0.0464935 137.149 0.0580588C137.366 0.0711751 137.437 0.0670855 137.367 0.0455576C137.31 0.0279581 137.304 0.0135609 137.353 0.0135609C137.402 0.0135609 137.494 0.0403054 137.558 0.0729945L137.673 0.132431L138.072 0.0724857C138.345 0.0313981 138.504 0.0227617 138.576 0.045036C138.65 0.068074 138.718 0.0661218 138.808 0.0383222C138.911 0.00645853 139.949 -0.000685322 144.348 0.000191434C147.325 0.000803854 150.987 0.0096203 152.484 0.0198331C153.982 0.0300437 156.466 0.0459381 158.006 0.0551548C163.563 0.0884264 164.995 0.100519 165.12 0.115223C165.398 0.148078 166.617 0.177222 166.802 0.155431C166.915 0.142002 167.048 0.146797 167.116 0.166802C167.203 0.192618 167.271 0.190397 167.382 0.15805C167.464 0.13421 167.532 0.127707 167.534 0.143602C167.535 0.161841 168.471 0.171211 170.07 0.169008C172.597 0.165522 176.914 0.21217 176.915 0.242963C176.915 0.251891 177.442 0.25773 178.087 0.255946C179.192 0.252884 181.737 0.292432 182.188 0.319677C182.355 0.329729 182.358 0.340532 182.205 0.375792C182.05 0.411326 182.054 0.417093 182.225 0.406759C182.341 0.399777 182.626 0.386093 182.858 0.376353C183.118 0.365439 183.247 0.345102 183.193 0.323367C183.145 0.303966 183.185 0.308448 183.282 0.333322C183.424 0.369903 183.619 0.37439 184.298 0.35678C184.776 0.344397 185.252 0.346699 185.403 0.362118C185.549 0.377034 185.86 0.391006 186.094 0.39317C186.487 0.396792 186.491 0.398142 186.155 0.410243C185.873 0.42041 185.839 0.429225 186.004 0.449212C186.238 0.477492 186.041 0.481034 183.911 0.486928C183.168 0.488975 182.663 0.478691 182.663 0.46148L182.663 0.461477ZM138.698 0.201563C138.65 0.177811 138.55 0.165577 138.476 0.174372C138.262 0.199588 138.318 0.244742 138.563 0.244742C138.698 0.244742 138.751 0.227791 138.698 0.201563ZM129.876 0.300347C130.031 0.244775 130.022 0.238465 129.808 0.25416C129.594 0.269817 129.585 0.263489 129.738 0.208563L129.917 0.144788L130.068 0.209216C130.24 0.283133 130.553 0.293881 130.68 0.230294C130.728 0.206453 130.713 0.186947 130.646 0.186947C130.579 0.186947 130.525 0.167282 130.525 0.143244C130.525 0.107713 130.662 0.103005 131.256 0.118069C131.755 0.130725 131.987 0.126261 131.987 0.103979C131.987 0.0858584 132.227 0.0713564 132.526 0.0713564C132.878 0.0713564 133.028 0.0823026 132.961 0.103137C132.888 0.125731 132.95 0.12554 133.176 0.102473C133.439 0.0755113 133.478 0.0774667 133.405 0.114038C133.356 0.138245 133.255 0.158052 133.181 0.158052C133.107 0.158052 133.046 0.171056 133.046 0.186948C133.046 0.247187 133.319 0.212371 133.5 0.129153C133.71 0.0320998 133.716 0.0315663 134.095 0.0703356C134.286 0.0898933 134.345 0.12043 134.293 0.172677C134.252 0.213634 134.278 0.243356 134.351 0.23872C134.424 0.234088 134.517 0.243001 134.559 0.258537C134.603 0.275242 134.244 0.288781 133.679 0.291682C132.805 0.296162 132.709 0.290635 132.558 0.227318C132.395 0.159046 131.836 0.129108 131.836 0.188653C131.836 0.205489 131.903 0.211313 131.985 0.201604C132.07 0.191638 132.097 0.202703 132.049 0.22697C131.998 0.25211 131.863 0.262706 131.723 0.252458C131.567 0.241061 131.521 0.246459 131.59 0.267887C131.712 0.305501 131.209 0.333275 130.626 0.321178C130.418 0.316871 130.123 0.3249 129.971 0.339026C129.724 0.362041 129.714 0.358026 129.876 0.300348V0.300347ZM134.014 0.191764C134.057 0.17852 133.995 0.167684 133.878 0.167684C133.761 0.167684 133.699 0.17852 133.742 0.191764C133.785 0.205008 133.846 0.215846 133.878 0.215846C133.91 0.215846 133.971 0.205008 134.014 0.191764ZM127.838 0.305824C127.792 0.291736 127.891 0.273436 128.056 0.265153C128.257 0.255121 128.327 0.234723 128.265 0.204073C128.215 0.17876 128.237 0.15805 128.315 0.15805C128.523 0.15805 128.489 0.252447 128.267 0.294972C128.041 0.338104 127.95 0.340409 127.838 0.305824ZM128.765 0.225478C128.808 0.204285 128.862 0.186947 128.886 0.186947C128.91 0.186947 128.964 0.204285 129.007 0.225478C129.049 0.246671 128.995 0.26401 128.886 0.26401C128.777 0.26401 128.723 0.246671 128.765 0.225478ZM129.349 0.14452C129.51 0.121185 129.792 0.101679 129.974 0.101173C130.335 0.100152 130.565 0.143993 130.339 0.170683C130.261 0.179826 130.172 0.172369 130.14 0.154086C130.096 0.12912 130.002 0.129072 129.759 0.153825C129.294 0.201366 129.001 0.194666 129.349 0.144439V0.14452ZM127.339 0.140588C127.389 0.130986 127.519 0.129959 127.629 0.138311C127.749 0.147535 127.713 0.154384 127.537 0.155769C127.378 0.15702 127.288 0.150194 127.339 0.140592V0.140588ZM135.315 0.129149C135.121 0.10521 135.127 0.10107 135.353 0.100692C135.499 0.10043 135.618 0.113254 135.618 0.129149C135.618 0.164394 135.601 0.164394 135.315 0.129149ZM134.503 0.0851348C134.431 0.0492223 134.469 0.0467487 134.713 0.0717014C135.064 0.107552 135.097 0.129149 134.802 0.129149C134.686 0.129149 134.551 0.109341 134.503 0.0851348Z" fill="#F87F81"/>
</svg>
